<svg width="161" height="111" viewBox="0 0 161 111" fill="none" xmlns="http://www.w3.org/2000/svg">
<path d="M57.3395 92.0513H76.713L80.0258 108.117H54.0267L57.3395 92.0513Z" fill="#404040"/>
<path d="M57.3395 92.0513H76.713L77.3001 94.8392H56.7524L57.3395 92.0513Z" fill="#404040"/>
<path d="M43.6271 105.66H90.2996C91.0124 105.66 91.935 106.322 92.3124 107.125L93.4027 109.393C93.822 110.244 93.5285 110.905 92.8156 110.905H41.1111C40.3982 110.905 40.1466 110.244 40.524 109.393L41.6143 107.125C41.9917 106.322 42.9143 105.66 43.6271 105.66Z" fill="#404040"/>
<path d="M14.0216 11.2007H120.03C120.869 11.2007 121.54 12.004 121.54 12.9491V90.3028C121.54 91.2478 120.869 92.0511 120.03 92.0511H14.0216C13.1829 92.0511 12.512 91.2478 12.512 90.3028V12.9491C12.512 12.004 13.1829 11.2007 14.0216 11.2007Z" fill="#404040" fill-opacity="0.81"/>
<path d="M16.8313 14.5085H117.221C117.976 14.5085 118.605 15.2646 118.605 16.1152V87.3259C118.605 88.1765 117.976 88.9326 117.221 88.9326H16.8313C16.0765 88.9326 15.4475 88.1765 15.4475 87.3259V16.1152C15.4475 15.2646 16.0765 14.5085 16.8313 14.5085Z" fill="white"/>
<path d="M16.8313 14.5085H30.7534L15.4475 31.8033V16.1152C15.4475 15.2646 16.0765 14.5085 16.8313 14.5085ZM43.5852 14.5085H81.6192L15.9507 88.5545C15.6572 88.271 15.4475 87.7985 15.4475 87.3259V46.2628L43.5852 14.5085ZM96.4219 14.5085H117.221C117.976 14.5085 118.605 15.2646 118.605 16.1152V17.5328L55.2847 88.9326H30.4179L96.4219 14.5085ZM118.605 31.7088V74.5675L105.857 88.9326H67.823L118.605 31.7088Z" fill="white"/>
<path d="M86.693 70.0314L96.7572 75.7963C97.1346 76.0325 97.47 75.749 97.47 75.182V70.0314H106.486C107.87 70.0314 109.002 68.7555 109.002 67.1962V41.4431C109.002 39.8838 107.87 38.6079 106.486 38.6079H30.9209C29.5371 38.6079 28.4049 39.8838 28.4049 41.4431V67.1962C28.4049 68.7555 29.5371 70.0314 30.9209 70.0314H86.693Z" fill="#2A2E33"/>
<path d="M85.0155 67.338L95.0797 73.1029C95.499 73.3392 95.7926 73.0557 95.7926 72.4886V67.338H104.808C106.192 67.338 107.324 66.0622 107.324 64.5028V38.7498C107.324 37.1904 106.192 35.9146 104.808 35.9146H29.2435C27.8596 35.9146 26.7274 37.1904 26.7274 38.7498V64.5028C26.7274 66.0622 27.8596 67.338 29.2435 67.338H85.0155Z" fill="#D3D3D4"/>
<path d="M86.3155 68.0941L95.0797 73.1029C95.499 73.3392 95.7926 73.0557 95.7926 72.4886V67.338H104.808C106.192 67.338 107.324 66.0622 107.324 64.5028V44.4202L86.3155 68.0941ZM102.292 35.9146H77.4255L49.5395 67.338H74.4063L102.292 35.9146ZM62.6648 35.9146H29.2435C27.8596 35.9146 26.7274 37.1904 26.7274 38.7498V64.5028C26.7274 66.0622 27.8596 67.338 29.2435 67.338H34.7787L62.6648 35.9146Z" fill="#D3D3D4"/>
<path d="M42.9559 39.3638C44.759 39.3638 46.3525 40.1671 47.5267 41.4902C48.7008 42.766 49.4137 44.5616 49.4137 46.5935V48.6254H47.6525V46.5935C47.6525 45.1287 47.1493 43.8056 46.2686 42.8605C45.43 41.9154 44.2558 41.3012 42.9559 41.3012C41.6559 41.3012 40.4818 41.9154 39.6431 42.8605C38.8044 43.8056 38.2593 45.1287 38.2593 46.5935V48.6254H36.498V46.5935C36.498 44.5616 37.2109 42.766 38.3851 41.4902C39.5592 40.1671 41.1946 39.3638 42.9559 39.3638ZM49.4137 49.3342H47.6525H49.4137ZM36.498 49.3342H38.2593H36.498Z" fill="black"/>
<path d="M43.5007 39.3638C45.3039 39.3638 46.8974 40.1671 48.0715 41.4902C49.2037 42.766 49.9585 44.5616 49.9585 46.5935V48.6254H48.1973V46.5935C48.1973 45.1287 47.6522 43.8056 46.8135 42.8605C45.9748 41.9154 44.8007 41.3012 43.5007 41.3012C42.2427 41.3012 41.0686 41.9154 40.2299 42.8605C39.3912 43.8056 38.8461 45.1287 38.8461 46.5935V48.6254H37.0848V46.5935C37.0848 44.5616 37.8396 42.766 38.9719 41.4902C40.146 40.1671 41.7395 39.3638 43.5007 39.3638ZM49.9585 49.3342H48.1973H49.9585ZM37.0848 49.3342H38.8461H37.0848Z" fill="#181A1F"/>
<path d="M35.4915 48.5784H49.6651C50.1683 48.5784 50.5877 49.0509 50.5877 49.6179V63.0379C50.5877 63.6522 50.1683 64.1247 49.6651 64.1247H35.4915C34.9463 64.1247 34.527 63.6522 34.527 63.0379V49.6179C34.527 49.0509 34.9463 48.5784 35.4915 48.5784Z" fill="#1B8DE4"/>
<path d="M35.9947 48.5784H51.3006C51.5103 48.5784 51.678 48.7674 51.678 49.0036V63.6994C51.678 63.9357 51.5103 64.1247 51.3006 64.1247H35.9947C35.785 64.1247 35.6173 63.9357 35.6173 63.6994V49.0036C35.6173 48.7674 35.785 48.5784 35.9947 48.5784Z" fill="#73B2FF"/>
<path d="M44.675 57.0365V58.6431C44.675 59.4464 43.6267 59.5882 43.3331 59.3046C43.1654 59.1156 43.3331 58.9266 43.3331 58.6431V57.0365C42.7041 56.753 42.2848 56.0442 42.2848 55.2409C42.2848 54.343 42.7041 53.5397 43.417 53.3035C43.5847 53.2562 43.8783 53.3035 44.0041 53.3035C44.9686 53.3035 45.7234 54.154 45.7234 55.2409C45.7234 56.0442 45.304 56.753 44.675 57.0365Z" fill="#404040"/>
<path d="M44.2977 57.0365V58.6431C44.2977 59.0684 44.0042 59.3991 43.6687 59.3991C43.2913 59.3991 42.9978 59.0684 42.9978 58.6431V57.0365C42.3687 56.753 41.9075 56.0442 41.9075 55.2409C41.9075 54.154 42.7042 53.3035 43.6687 53.3035C44.5912 53.3035 45.388 54.154 45.388 55.2409C45.388 56.0442 44.9267 56.753 44.2977 57.0365Z" fill="#181A1F"/>
<path d="M60.7776 44.8923H97.4279C98.1827 44.8923 98.8117 45.6011 98.8117 46.4517V56.8947C98.8117 57.7452 98.1827 58.454 97.4279 58.454H60.7776C60.0228 58.454 59.3938 57.7452 59.3938 56.8947V46.4517C59.3938 45.6011 60.0228 44.8923 60.7776 44.8923Z" fill="#E5E7E8"/>
<path d="M65.8096 49.8069C66.7321 49.8069 67.445 50.6574 67.445 51.697C67.445 52.7366 66.7321 53.5399 65.8096 53.5399C64.887 53.5399 64.1322 52.7366 64.1322 51.697C64.1322 50.6574 64.887 49.8069 65.8096 49.8069ZM92.4376 49.8069C93.3601 49.8069 94.1149 50.6574 94.1149 51.697C94.1149 52.7366 93.3601 53.5399 92.4376 53.5399C91.515 53.5399 90.7602 52.7366 90.7602 51.697C90.7602 50.6574 91.515 49.8069 92.4376 49.8069ZM85.7701 49.8069C86.6926 49.8069 87.4475 50.6574 87.4475 51.697C87.4475 52.7366 86.6926 53.5399 85.7701 53.5399C84.8475 53.5399 84.0927 52.7366 84.0927 51.697C84.0927 50.6574 84.8475 49.8069 85.7701 49.8069ZM79.1026 49.8069C80.0252 49.8069 80.78 50.6574 80.78 51.697C80.78 52.7366 80.0252 53.5399 79.1026 53.5399C78.1801 53.5399 77.4672 52.7366 77.4672 51.697C77.4672 50.6574 78.1801 49.8069 79.1026 49.8069ZM72.4351 49.8069C73.3577 49.8069 74.1125 50.6574 74.1125 51.697C74.1125 52.7366 73.3577 53.5399 72.4351 53.5399C71.5545 53.5399 70.7997 52.7366 70.7997 51.697C70.7997 50.6574 71.5545 49.8069 72.4351 49.8069Z" fill="#181A1F"/>
<path d="M113.153 51.2247V46.7829C113.153 45.5543 113.614 44.4674 114.285 43.7114C114.998 42.9081 115.963 42.4355 117.011 42.4355H142.633C143.723 42.4355 144.688 42.9081 145.358 43.7114C146.071 44.4674 146.491 45.5543 146.491 46.7829V106.7C146.491 107.881 146.071 108.968 145.358 109.724C144.688 110.528 143.723 111 142.633 111H117.011C115.963 111 114.998 110.528 114.285 109.724C113.614 108.968 113.153 107.881 113.153 106.7V69.9842H112.734V69.4172V65.0226V64.6446V64.5029V64.0776V59.7303V59.1632H113.153V58.9742H112.734V58.4544V51.7917V51.2247H113.153Z" fill="#404040" fill-opacity="0.82"/>
<path d="M117.011 109.252H142.633C143.891 109.252 144.939 108.07 144.939 106.7V46.7826C144.939 45.365 143.891 44.231 142.633 44.231H117.011C115.795 44.231 114.747 45.365 114.747 46.7826V106.7C114.747 108.07 115.795 109.252 117.011 109.252Z" fill="white"/>
<path d="M117.011 109.252H142.213L144.939 106.18V70.1258L114.747 104.101V106.7C114.747 108.07 115.795 109.252 117.011 109.252ZM144.939 57.6982V46.7826C144.939 45.365 143.891 44.231 142.633 44.231H124.308L114.747 54.9575V91.7206L144.939 57.6982Z" fill="white"/>
<path d="M129.969 105.377C130.053 105.377 130.095 105.424 130.137 105.424C130.179 105.471 130.221 105.471 130.263 105.518C130.304 105.566 130.346 105.566 130.388 105.613C130.43 105.66 130.43 105.707 130.472 105.755C130.514 105.802 130.514 105.849 130.556 105.896C130.556 105.944 130.598 105.991 130.598 106.085C130.598 106.133 130.598 106.18 130.598 106.227C130.598 106.274 130.598 106.369 130.598 106.416C130.598 106.463 130.556 106.511 130.556 106.558C130.514 106.605 130.514 106.652 130.472 106.7C130.43 106.747 130.43 106.794 130.388 106.841C130.346 106.889 130.304 106.936 130.263 106.936C130.221 106.983 130.179 107.03 130.137 107.03C130.095 107.078 130.053 107.078 129.969 107.078C129.927 107.078 129.885 107.078 129.843 107.078C129.801 107.078 129.717 107.078 129.675 107.078C129.634 107.078 129.592 107.078 129.55 107.03C129.508 107.03 129.466 106.983 129.424 106.936C129.382 106.936 129.34 106.889 129.298 106.841C129.256 106.794 129.214 106.747 129.214 106.7C129.172 106.652 129.13 106.605 129.13 106.558C129.13 106.511 129.088 106.463 129.088 106.416C129.088 106.369 129.088 106.274 129.088 106.227C129.088 106.18 129.088 106.133 129.088 106.085C129.088 105.991 129.13 105.944 129.13 105.896C129.13 105.849 129.172 105.849 129.172 105.802L129.298 105.613C129.34 105.566 129.382 105.566 129.424 105.518C129.466 105.471 129.508 105.471 129.55 105.424C129.592 105.424 129.634 105.377 129.675 105.377C129.717 105.377 129.801 105.377 129.843 105.377C129.885 105.377 129.927 105.377 129.969 105.377ZM122.756 105.518H123.679H123.889V105.755V106.747V106.983H123.679H122.756H122.589V106.747V105.755V105.518H122.756ZM136.301 105.944L136.72 105.66L136.888 105.518L137.224 105.235V105.707V105.944V106.558V106.794V107.22L136.888 106.983L136.72 106.841L136.301 106.511L136.217 106.416L135.966 106.227L136.217 106.038L136.301 105.944Z" fill="#404040"/>
<path d="M126.866 45.6484H132.904C132.946 45.6484 133.03 45.6957 133.072 45.7902C133.114 45.8375 133.156 45.9792 133.156 46.0737C133.156 46.2155 133.114 46.31 133.072 46.3572C133.03 46.4517 132.946 46.499 132.904 46.499H126.866C126.782 46.499 126.698 46.4517 126.656 46.3572C126.614 46.31 126.572 46.2155 126.572 46.0737C126.572 45.9792 126.614 45.8375 126.656 45.7902C126.698 45.6957 126.782 45.6484 126.866 45.6484Z" fill="#404040"/>
<path d="M146.491 59.73V81.372H138.943H133.323L127.579 84.6325L126.404 85.3413C126.111 85.483 125.901 85.294 125.901 84.916V81.372H121.414C120.869 81.372 120.408 81.0885 120.072 80.6632V80.616L120.03 80.5687C120.03 80.5214 119.988 80.5214 119.988 80.4742C119.947 80.4269 119.947 80.4269 119.905 80.3797C119.905 80.3324 119.905 80.3324 119.863 80.2852V80.2379V80.1907H119.821V80.1434V80.0962H119.779V80.0489V80.0017V79.9544L119.737 79.9072V79.8599V79.8126V79.7654V79.7181H119.695V79.6709V79.6236C119.695 79.5764 119.695 79.5291 119.695 79.5291V79.4819V79.4346V61.6674C119.695 60.5805 120.492 59.73 121.414 59.73H138.691H146.491Z" fill="#404040"/>
<path d="M144.939 81.372V59.73H138.691H121.414C120.492 59.73 119.695 60.5805 119.695 61.6674V79.4346V79.4819V79.5291C119.695 79.5291 119.695 79.5764 119.695 79.6236V79.6709V79.7181H119.737V79.7654V79.8126V79.8599V79.9072L119.779 79.9544V80.0017V80.0489V80.0962H119.821V80.1434V80.1907H119.863V80.2379V80.2852C119.905 80.3324 119.905 80.3324 119.905 80.3797C119.947 80.4269 119.947 80.4269 119.988 80.4742C119.988 80.5214 120.03 80.5214 120.03 80.5687L120.072 80.616V80.6632C120.408 81.0885 120.869 81.372 121.414 81.372H125.901V84.916C125.901 85.294 126.111 85.483 126.404 85.3413L127.579 84.6325L133.323 81.372H138.943H144.939Z" fill="#2A2E33"/>
<path d="M137.223 57.9819H119.989C119.024 57.9819 118.227 58.8797 118.227 59.9193V77.6866V77.7338V77.7811C118.227 77.8283 118.269 77.8283 118.269 77.8756V77.9228V77.9701V78.0173V78.0646V78.1119L118.311 78.1591V78.2064V78.2536L118.353 78.3009V78.3481V78.3954H118.395V78.4426V78.4899L118.437 78.5371C118.437 78.5844 118.437 78.5844 118.479 78.6316C118.479 78.6789 118.521 78.6789 118.521 78.7261C118.563 78.7734 118.563 78.7734 118.563 78.8207L118.605 78.8679L118.647 78.9152C118.94 79.3404 119.443 79.624 119.989 79.624H124.434V83.168C124.434 83.546 124.643 83.735 124.937 83.5932L126.153 82.8844L131.856 79.624H137.475C144.73 79.624 151.984 79.624 159.239 79.624C160.203 79.624 161 78.7261 161 77.6866V59.9193C161 58.8797 160.203 57.9819 159.239 57.9819C151.9 57.9819 144.562 57.9819 137.223 57.9819Z" fill="#D3D3D4"/>
<path d="M137.223 57.9819H119.989C119.024 57.9819 118.227 58.8797 118.227 59.9193V77.6866V77.7338V77.7811C118.227 77.8283 118.269 77.8283 118.269 77.8756V77.9228V77.9701V78.0173V78.0646V78.1119L118.311 78.1591V78.2064V78.2536L118.353 78.3009V78.3481V78.3954H118.395V78.4426V78.4899L118.437 78.5371C118.437 78.5844 118.437 78.5844 118.479 78.6316C118.479 78.6789 118.521 78.6789 118.521 78.7261C118.563 78.7734 118.563 78.7734 118.563 78.8207L118.605 78.8679L118.647 78.9152C118.94 79.3404 119.443 79.624 119.989 79.624H124.434V80.8053L144.688 57.9819H137.223ZM136.636 79.624H137.475C144.73 79.624 151.984 79.624 159.239 79.624C160.203 79.624 161 78.7261 161 77.6866V59.9193C161 58.8797 160.203 57.9819 159.239 57.9819H155.968L136.636 79.624Z" fill="#D3D3D5"/>
<path d="M151.69 75.7963C154.165 74.8985 155.674 73.6699 156.513 71.7798C157.31 69.8896 157.477 67.338 157.352 63.6522V63.4632L157.184 63.3687C156.345 62.8962 155.506 62.4709 154.542 62.2346C153.619 61.9511 152.613 61.8093 151.607 61.8093C150.558 61.8093 149.552 61.9511 148.629 62.2346C147.707 62.4709 146.826 62.8962 145.987 63.3687L145.862 63.4632L145.82 63.6522C145.694 67.338 145.862 69.8896 146.7 71.7798C147.539 73.6699 149.007 74.8985 151.481 75.7963C151.565 75.8436 151.607 75.8436 151.69 75.7963Z" fill="#BAC0CA"/>
<path d="M151.607 61.8093C150.558 61.8093 149.552 61.9511 148.629 62.2346C147.707 62.4709 146.826 62.8962 145.987 63.3687L145.862 63.4632L145.82 63.6522C145.694 67.338 145.862 69.8896 146.7 71.7798C147.539 73.6699 149.007 74.8985 151.481 75.7963C151.523 75.8436 151.565 75.8436 151.607 75.8436V61.8093Z" fill="#BAC0CA"/>
<path d="M155.884 64.6917C156.135 70.3621 155.38 72.583 151.606 74.0006C147.79 72.583 147.036 70.3621 147.287 64.6917C148.545 63.9357 149.971 63.4631 151.606 63.4631C153.242 63.4631 154.626 63.9357 155.884 64.6917Z" fill="#404040"/>
<path d="M150.894 69.3697L149.72 68.0466C149.552 67.8576 149.3 67.8576 149.132 68.0466L148.839 68.3774C148.671 68.5664 148.671 68.8499 148.839 69.0389L150.307 70.6928L150.6 71.0235C150.768 71.2126 151.019 71.2126 151.187 71.0235L154.332 67.4795C154.5 67.2905 154.5 66.9598 154.332 66.818L154.039 66.4872C153.913 66.2982 153.619 66.2982 153.452 66.4872L150.894 69.3697Z" fill="#73B2FF"/>
<path d="M122.337 65.1167H140.997C141.417 65.1167 141.794 65.4947 141.794 65.9673V71.8267C141.794 72.2992 141.417 72.6772 140.997 72.6772H122.337C121.918 72.6772 121.54 72.2992 121.54 71.8267V65.9673C121.54 65.4947 121.918 65.1167 122.337 65.1167Z" fill="#E5E7E8"/>
<path d="M123.763 67.7632C124.308 67.7632 124.769 68.283 124.769 68.8973C124.769 69.5116 124.308 69.9841 123.763 69.9841C123.217 69.9841 122.756 69.5116 122.756 68.8973C122.756 68.283 123.217 67.7632 123.763 67.7632ZM139.572 67.7632C140.117 67.7632 140.578 68.283 140.578 68.8973C140.578 69.5116 140.117 69.9841 139.572 69.9841C139.026 69.9841 138.565 69.5116 138.565 68.8973C138.565 68.283 139.026 67.7632 139.572 67.7632ZM135.63 67.7632C136.175 67.7632 136.594 68.283 136.594 68.8973C136.594 69.5116 136.175 69.9841 135.63 69.9841C135.085 69.9841 134.623 69.5116 134.623 68.8973C134.623 68.283 135.085 67.7632 135.63 67.7632ZM131.646 67.7632C132.191 67.7632 132.653 68.283 132.653 68.8973C132.653 69.5116 132.191 69.9841 131.646 69.9841C131.101 69.9841 130.682 69.5116 130.682 68.8973C130.682 68.283 131.101 67.7632 131.646 67.7632ZM127.704 67.7632C128.249 67.7632 128.711 68.283 128.711 68.8973C128.711 69.5116 128.249 69.9841 127.704 69.9841C127.159 69.9841 126.74 69.5116 126.74 68.8973C126.74 68.283 127.159 67.7632 127.704 67.7632Z" fill="#404040" fill-opacity="0.82"/>
<path d="M0.0157252 13.7999L0.141527 12.9493C0.183461 12.6658 0.309263 12.4768 0.476998 12.335C0.644734 12.2405 0.896337 12.146 1.10601 12.1933L7.68963 13.6581C7.94123 13.7054 8.10897 13.8471 8.23477 14.0362C8.36057 14.2252 8.40251 14.4614 8.36057 14.6977L8.19284 15.5483C8.1509 15.7845 8.0251 16.0208 7.85737 16.1626C7.68963 16.2571 7.47996 16.3516 7.27029 16.3043L0.644734 14.8395C0.435064 14.7922 0.225395 14.6504 0.141527 14.4614C0.0157252 14.2724 -0.0262087 14.0362 0.0157252 13.7999ZM13.6862 9.12181L12.9314 9.35807C12.7217 9.40533 12.512 9.35807 12.3443 9.26357C12.1346 9.12181 12.0088 8.93279 11.9669 8.69653L10.2057 1.37226C10.1637 1.13599 10.2057 0.899728 10.2895 0.663461C10.4153 0.474448 10.5831 0.332688 10.7927 0.238181L11.5475 0.049168C11.7572 -0.0453387 11.9669 0.00191462 12.1766 0.143675C12.3443 0.238181 12.4701 0.427195 12.554 0.663461L14.2733 7.98773C14.3152 8.27125 14.2733 8.50751 14.1894 8.69653C14.0636 8.88554 13.8958 9.07455 13.6862 9.12181ZM3.49624 4.86901L4.04138 4.25471C4.20912 4.11295 4.41879 4.01845 4.62845 4.01845C4.83812 4.01845 5.04779 4.11295 5.1736 4.25471L9.95406 9.64159C10.1218 9.83061 10.2057 10.0669 10.2057 10.3031C10.2057 10.5394 10.1218 10.7284 9.95406 10.9174L9.40892 11.5317C9.24118 11.7207 9.03151 11.8152 8.82185 11.8152C8.61218 11.8152 8.40251 11.7207 8.2767 11.5317L3.49624 6.1921C3.3285 6.00309 3.24464 5.76682 3.24464 5.53055C3.24464 5.29429 3.3285 5.05802 3.49624 4.86901Z" fill="#F9FCFC"/>
<path d="M155.255 41.0179L155.129 40.3564C155.129 40.1673 155.003 40.0256 154.878 39.9311C154.752 39.7893 154.584 39.7421 154.416 39.7893L149.259 40.9234C149.091 40.9234 148.965 41.0652 148.881 41.2069C148.755 41.3487 148.713 41.5377 148.755 41.7267L148.881 42.3883C148.923 42.5773 149.007 42.7663 149.133 42.8608C149.259 42.9553 149.426 43.0025 149.636 42.9553L154.752 41.8685C154.92 41.8212 155.087 41.7267 155.171 41.5377C155.255 41.3959 155.297 41.2069 155.255 41.0179ZM144.604 37.3794L145.191 37.5684C145.359 37.6157 145.526 37.5684 145.694 37.5212C145.82 37.4267 145.904 37.2376 145.946 37.0486L147.33 31.3782C147.372 31.1892 147.33 31.0002 147.246 30.8112C147.162 30.6694 147.036 30.5277 146.868 30.4804L146.281 30.3387C146.113 30.2914 145.946 30.2914 145.82 30.3859C145.652 30.4804 145.568 30.6222 145.526 30.8112L144.185 36.5288C144.143 36.7179 144.143 36.9069 144.226 37.0486C144.31 37.2376 144.436 37.3321 144.604 37.3794ZM152.529 34.1189L152.11 33.6464C151.984 33.5046 151.816 33.4101 151.649 33.4101C151.523 33.4101 151.355 33.5046 151.229 33.6464L147.539 37.8047C147.413 37.9464 147.33 38.1355 147.33 38.2772C147.33 38.4662 147.413 38.6552 147.539 38.797L147.959 39.2695C148.084 39.4113 148.21 39.5058 148.378 39.5058C148.546 39.5058 148.713 39.4113 148.839 39.2695L152.529 35.1112C152.655 34.9695 152.739 34.7805 152.739 34.5915C152.739 34.4024 152.655 34.2607 152.529 34.1189Z" fill="#F9FCFC"/>
</svg>
