<svg width="224" height="74" viewBox="0 0 224 74" fill="none" xmlns="http://www.w3.org/2000/svg">
<path d="M174.284 23.0557H172.379V24.945H174.284V23.0557Z" fill="black" fill-opacity="0.86"/>
<path d="M176.188 23.0557H174.284V24.945H176.188V23.0557Z" fill="black" fill-opacity="0.86"/>
<path d="M178.096 23.0557H176.192V24.945H178.096V23.0557Z" fill="black" fill-opacity="0.86"/>
<path d="M180.001 23.0557H178.096V24.945H180.001V23.0557Z" fill="black" fill-opacity="0.86"/>
<path d="M181.905 23.0557H180.001V24.945H181.905V23.0557Z" fill="black" fill-opacity="0.86"/>
<path d="M183.813 23.0557H181.908V24.945H183.813V23.0557Z" fill="black" fill-opacity="0.86"/>
<path d="M185.718 23.0557H183.813V24.945H185.718V23.0557Z" fill="black" fill-opacity="0.86"/>
<path d="M189.53 23.0557H187.625V24.945H189.53V23.0557Z" fill="black" fill-opacity="0.86"/>
<path d="M191.438 23.0557H189.534V24.945H191.438V23.0557Z" fill="black" fill-opacity="0.86"/>
<path d="M193.343 23.0557H191.438V24.945H193.343V23.0557Z" fill="black" fill-opacity="0.86"/>
<path d="M197.155 23.0557H195.251V24.945H197.155V23.0557Z" fill="black" fill-opacity="0.86"/>
<path d="M199.063 23.0557H197.158V24.945H199.063V23.0557Z" fill="black" fill-opacity="0.86"/>
<path d="M202.875 23.0557H200.971V24.945H202.875V23.0557Z" fill="black" fill-opacity="0.86"/>
<path d="M206.688 23.0557H204.784V24.945H206.688V23.0557Z" fill="black" fill-opacity="0.86"/>
<path d="M208.592 23.0557H206.688V24.945H208.592V23.0557Z" fill="black" fill-opacity="0.86"/>
<path d="M210.5 23.0557H208.596V24.945H210.5V23.0557Z" fill="black" fill-opacity="0.86"/>
<path d="M212.404 23.0557H210.5V24.945H212.404V23.0557Z" fill="black" fill-opacity="0.86"/>
<path d="M214.309 23.0557H212.405V24.945H214.309V23.0557Z" fill="black" fill-opacity="0.86"/>
<path d="M216.218 23.0557H214.313V24.945H216.218V23.0557Z" fill="black" fill-opacity="0.86"/>
<path d="M218.122 23.0557H216.217V24.945H218.122V23.0557Z" fill="black" fill-opacity="0.86"/>
<path d="M174.284 24.9451H172.379V26.8344H174.284V24.9451Z" fill="black" fill-opacity="0.86"/>
<path d="M185.718 24.9451H183.813V26.8344H185.718V24.9451Z" fill="black" fill-opacity="0.86"/>
<path d="M195.25 24.9451H193.346V26.8344H195.25V24.9451Z" fill="black" fill-opacity="0.86"/>
<path d="M199.063 24.9451H197.158V26.8344H199.063V24.9451Z" fill="black" fill-opacity="0.86"/>
<path d="M200.967 24.9451H199.063V26.8344H200.967V24.9451Z" fill="black" fill-opacity="0.86"/>
<path d="M206.688 24.9451H204.784V26.8344H206.688V24.9451Z" fill="black" fill-opacity="0.86"/>
<path d="M218.122 24.9451H216.217V26.8344H218.122V24.9451Z" fill="black" fill-opacity="0.86"/>
<path d="M174.284 26.8345H172.379V28.7238H174.284V26.8345Z" fill="black" fill-opacity="0.86"/>
<path d="M178.096 26.8345H176.192V28.7238H178.096V26.8345Z" fill="black" fill-opacity="0.86"/>
<path d="M180.001 26.8345H178.096V28.7238H180.001V26.8345Z" fill="black" fill-opacity="0.86"/>
<path d="M181.905 26.8345H180.001V28.7238H181.905V26.8345Z" fill="black" fill-opacity="0.86"/>
<path d="M185.718 26.8345H183.813V28.7238H185.718V26.8345Z" fill="black" fill-opacity="0.86"/>
<path d="M189.53 26.8345H187.625V28.7238H189.53V26.8345Z" fill="black" fill-opacity="0.86"/>
<path d="M191.438 26.8345H189.534V28.7238H191.438V26.8345Z" fill="black" fill-opacity="0.86"/>
<path d="M193.343 28.7236H191.438V30.6129H193.343V28.7236Z" fill="black" fill-opacity="0.86"/>
<path d="M197.155 26.8345H195.251V28.7238H197.155V26.8345Z" fill="black" fill-opacity="0.86"/>
<path d="M206.688 26.8345H204.784V28.7238H206.688V26.8345Z" fill="black" fill-opacity="0.86"/>
<path d="M210.5 26.8345H208.596V28.7238H210.5V26.8345Z" fill="black" fill-opacity="0.86"/>
<path d="M212.404 26.8345H210.5V28.7238H212.404V26.8345Z" fill="black" fill-opacity="0.86"/>
<path d="M214.309 26.8345H212.405V28.7238H214.309V26.8345Z" fill="black" fill-opacity="0.86"/>
<path d="M218.122 26.8345H216.217V28.7238H218.122V26.8345Z" fill="black" fill-opacity="0.86"/>
<path d="M174.284 28.7236H172.379V30.6129H174.284V28.7236Z" fill="black" fill-opacity="0.86"/>
<path d="M178.096 28.7236H176.192V30.6129H178.096V28.7236Z" fill="black" fill-opacity="0.86"/>
<path d="M180.001 28.7236H178.096V30.6129H180.001V28.7236Z" fill="black" fill-opacity="0.86"/>
<path d="M181.905 28.7236H180.001V30.6129H181.905V28.7236Z" fill="black" fill-opacity="0.86"/>
<path d="M185.718 28.7236H183.813V30.6129H185.718V28.7236Z" fill="black" fill-opacity="0.86"/>
<path d="M197.155 28.7236H195.251V30.6129H197.155V28.7236Z" fill="black" fill-opacity="0.86"/>
<path d="M200.967 28.7236H199.063V30.6129H200.967V28.7236Z" fill="black" fill-opacity="0.86"/>
<path d="M202.875 28.7236H200.971V30.6129H202.875V28.7236Z" fill="black" fill-opacity="0.86"/>
<path d="M206.688 28.7236H204.784V30.6129H206.688V28.7236Z" fill="black" fill-opacity="0.86"/>
<path d="M210.5 28.7236H208.596V30.6129H210.5V28.7236Z" fill="black" fill-opacity="0.86"/>
<path d="M212.404 28.7236H210.5V30.6129H212.404V28.7236Z" fill="black" fill-opacity="0.86"/>
<path d="M214.309 28.7236H212.405V30.6129H214.309V28.7236Z" fill="black" fill-opacity="0.86"/>
<path d="M218.122 28.7236H216.217V30.6129H218.122V28.7236Z" fill="black" fill-opacity="0.86"/>
<path d="M174.284 30.6094H172.379V32.4987H174.284V30.6094Z" fill="black" fill-opacity="0.86"/>
<path d="M178.096 30.6094H176.192V32.4987H178.096V30.6094Z" fill="black" fill-opacity="0.86"/>
<path d="M180.001 30.6094H178.096V32.4987H180.001V30.6094Z" fill="black" fill-opacity="0.86"/>
<path d="M181.905 30.6094H180.001V32.4987H181.905V30.6094Z" fill="black" fill-opacity="0.86"/>
<path d="M185.718 30.6094H183.813V32.4987H185.718V30.6094Z" fill="black" fill-opacity="0.86"/>
<path d="M193.343 30.6094H191.438V32.4987H193.343V30.6094Z" fill="black" fill-opacity="0.86"/>
<path d="M195.25 30.6094H193.346V32.4987H195.25V30.6094Z" fill="black" fill-opacity="0.86"/>
<path d="M197.155 30.6094H195.251V32.4987H197.155V30.6094Z" fill="black" fill-opacity="0.86"/>
<path d="M199.063 30.6094H197.158V32.4987H199.063V30.6094Z" fill="black" fill-opacity="0.86"/>
<path d="M202.875 30.6094H200.971V32.4987H202.875V30.6094Z" fill="black" fill-opacity="0.86"/>
<path d="M206.688 30.6094H204.784V32.4987H206.688V30.6094Z" fill="black" fill-opacity="0.86"/>
<path d="M210.5 30.6094H208.596V32.4987H210.5V30.6094Z" fill="black" fill-opacity="0.86"/>
<path d="M212.404 30.6094H210.5V32.4987H212.404V30.6094Z" fill="black" fill-opacity="0.86"/>
<path d="M214.309 30.6094H212.405V32.4987H214.309V30.6094Z" fill="black" fill-opacity="0.86"/>
<path d="M218.122 30.6094H216.217V32.4987H218.122V30.6094Z" fill="black" fill-opacity="0.86"/>
<path d="M174.284 32.4988H172.379V34.3881H174.284V32.4988Z" fill="black" fill-opacity="0.86"/>
<path d="M185.718 32.4988H183.813V34.3881H185.718V32.4988Z" fill="black" fill-opacity="0.86"/>
<path d="M189.53 32.4988H187.625V34.3881H189.53V32.4988Z" fill="black" fill-opacity="0.86"/>
<path d="M193.343 32.4988H191.438V34.3881H193.343V32.4988Z" fill="black" fill-opacity="0.86"/>
<path d="M195.25 32.4988H193.346V34.3881H195.25V32.4988Z" fill="black" fill-opacity="0.86"/>
<path d="M202.875 32.4988H200.971V34.3881H202.875V32.4988Z" fill="black" fill-opacity="0.86"/>
<path d="M206.688 32.4988H204.784V34.3881H206.688V32.4988Z" fill="black" fill-opacity="0.86"/>
<path d="M218.122 32.4988H216.217V34.3881H218.122V32.4988Z" fill="black" fill-opacity="0.86"/>
<path d="M174.284 34.3882H172.379V36.2775H174.284V34.3882Z" fill="black" fill-opacity="0.86"/>
<path d="M176.188 34.3882H174.284V36.2775H176.188V34.3882Z" fill="black" fill-opacity="0.86"/>
<path d="M178.096 34.3882H176.192V36.2775H178.096V34.3882Z" fill="black" fill-opacity="0.86"/>
<path d="M180.001 34.3882H178.096V36.2775H180.001V34.3882Z" fill="black" fill-opacity="0.86"/>
<path d="M181.905 34.3882H180.001V36.2775H181.905V34.3882Z" fill="black" fill-opacity="0.86"/>
<path d="M183.813 34.3882H181.908V36.2775H183.813V34.3882Z" fill="black" fill-opacity="0.86"/>
<path d="M185.718 34.3882H183.813V36.2775H185.718V34.3882Z" fill="black" fill-opacity="0.86"/>
<path d="M189.53 34.3882H187.625V36.2775H189.53V34.3882Z" fill="black" fill-opacity="0.86"/>
<path d="M189.53 36.2742H187.625V38.1635H189.53V36.2742Z" fill="black" fill-opacity="0.86"/>
<path d="M193.343 34.3882H191.438V36.2775H193.343V34.3882Z" fill="black" fill-opacity="0.86"/>
<path d="M199.063 34.3882H197.158V36.2775H199.063V34.3882Z" fill="black" fill-opacity="0.86"/>
<path d="M200.967 34.3882H199.063V36.2775H200.967V34.3882Z" fill="black" fill-opacity="0.86"/>
<path d="M202.875 34.3882H200.971V36.2775H202.875V34.3882Z" fill="black" fill-opacity="0.86"/>
<path d="M206.688 34.3882H204.784V36.2775H206.688V34.3882Z" fill="black" fill-opacity="0.86"/>
<path d="M208.592 34.3882H206.688V36.2775H208.592V34.3882Z" fill="black" fill-opacity="0.86"/>
<path d="M210.5 34.3882H208.596V36.2775H210.5V34.3882Z" fill="black" fill-opacity="0.86"/>
<path d="M212.404 34.3882H210.5V36.2775H212.404V34.3882Z" fill="black" fill-opacity="0.86"/>
<path d="M214.309 34.3882H212.405V36.2775H214.309V34.3882Z" fill="black" fill-opacity="0.86"/>
<path d="M216.218 34.3882H214.313V36.2775H216.218V34.3882Z" fill="black" fill-opacity="0.86"/>
<path d="M218.122 34.3882H216.217V36.2775H218.122V34.3882Z" fill="black" fill-opacity="0.86"/>
<path d="M191.438 36.2742H189.534V38.1635H191.438V36.2742Z" fill="black" fill-opacity="0.86"/>
<path d="M191.438 30.6094H189.534V32.4987H191.438V30.6094Z" fill="black" fill-opacity="0.86"/>
<path d="M195.25 36.2742H193.346V38.1635H195.25V36.2742Z" fill="black" fill-opacity="0.86"/>
<path d="M199.063 36.2742H197.158V38.1635H199.063V36.2742Z" fill="black" fill-opacity="0.86"/>
<path d="M202.875 36.2742H200.971V38.1635H202.875V36.2742Z" fill="black" fill-opacity="0.86"/>
<path d="M174.284 38.1626H172.379V40.0519H174.284V38.1626Z" fill="black" fill-opacity="0.86"/>
<path d="M176.188 40.0522H174.284V41.9415H176.188V40.0522Z" fill="black" fill-opacity="0.86"/>
<path d="M178.096 38.1626H176.192V40.0519H178.096V38.1626Z" fill="black" fill-opacity="0.86"/>
<path d="M180.001 38.1626H178.096V40.0519H180.001V38.1626Z" fill="black" fill-opacity="0.86"/>
<path d="M185.718 38.1626H183.813V40.0519H185.718V38.1626Z" fill="black" fill-opacity="0.86"/>
<path d="M187.626 38.1626H185.721V40.0519H187.626V38.1626Z" fill="black" fill-opacity="0.86"/>
<path d="M193.343 38.1626H191.438V40.0519H193.343V38.1626Z" fill="black" fill-opacity="0.86"/>
<path d="M197.155 38.1626H195.251V40.0519H197.155V38.1626Z" fill="black" fill-opacity="0.86"/>
<path d="M199.063 38.1626H197.158V40.0519H199.063V38.1626Z" fill="black" fill-opacity="0.86"/>
<path d="M200.967 38.1626H199.063V40.0519H200.967V38.1626Z" fill="black" fill-opacity="0.86"/>
<path d="M202.875 38.1626H200.971V40.0519H202.875V38.1626Z" fill="black" fill-opacity="0.86"/>
<path d="M208.592 38.1626H206.688V40.0519H208.592V38.1626Z" fill="black" fill-opacity="0.86"/>
<path d="M204.78 38.1626H202.875V40.0519H204.78V38.1626Z" fill="black" fill-opacity="0.86"/>
<path d="M214.309 38.1626H212.405V40.0519H214.309V38.1626Z" fill="black" fill-opacity="0.86"/>
<path d="M212.404 38.1626H210.5V40.0519H212.404V38.1626Z" fill="black" fill-opacity="0.86"/>
<path d="M210.5 38.1626H208.596V40.0519H210.5V38.1626Z" fill="black" fill-opacity="0.86"/>
<path d="M218.122 38.1626H216.217V40.0519H218.122V38.1626Z" fill="black" fill-opacity="0.86"/>
<path d="M189.53 40.0522H187.625V41.9415H189.53V40.0522Z" fill="black" fill-opacity="0.86"/>
<path d="M187.626 40.0522H185.721V41.9415H187.626V40.0522Z" fill="black" fill-opacity="0.86"/>
<path d="M193.343 40.0522H191.438V41.9415H193.343V40.0522Z" fill="black" fill-opacity="0.86"/>
<path d="M195.25 40.0522H193.346V41.9415H195.25V40.0522Z" fill="black" fill-opacity="0.86"/>
<path d="M181.905 40.0522H180.001V41.9415H181.905V40.0522Z" fill="black" fill-opacity="0.86"/>
<path d="M180.001 40.0522H178.096V41.9415H180.001V40.0522Z" fill="black" fill-opacity="0.86"/>
<path d="M183.813 40.0522H181.908V41.9415H183.813V40.0522Z" fill="black" fill-opacity="0.86"/>
<path d="M200.967 40.0522H199.063V41.9415H200.967V40.0522Z" fill="black" fill-opacity="0.86"/>
<path d="M204.78 40.0522H202.875V41.9415H204.78V40.0522Z" fill="black" fill-opacity="0.86"/>
<path d="M206.688 40.0522H204.784V41.9415H206.688V40.0522Z" fill="black" fill-opacity="0.86"/>
<path d="M208.592 40.0522H206.688V41.9415H208.592V40.0522Z" fill="black" fill-opacity="0.86"/>
<path d="M212.404 40.0522H210.5V41.9415H212.404V40.0522Z" fill="black" fill-opacity="0.86"/>
<path d="M216.218 40.0522H214.313V41.9415H216.218V40.0522Z" fill="black" fill-opacity="0.86"/>
<path d="M218.122 40.0522H216.217V41.9415H218.122V40.0522Z" fill="black" fill-opacity="0.86"/>
<path d="M174.284 41.9417H172.379V43.831H174.284V41.9417Z" fill="black" fill-opacity="0.86"/>
<path d="M178.096 41.9417H176.192V43.831H178.096V41.9417Z" fill="black" fill-opacity="0.86"/>
<path d="M183.813 41.9417H181.908V43.831H183.813V41.9417Z" fill="black" fill-opacity="0.86"/>
<path d="M183.813 43.8271H181.908V45.7165H183.813V43.8271Z" fill="black" fill-opacity="0.86"/>
<path d="M185.718 41.9417H183.813V43.831H185.718V41.9417Z" fill="black" fill-opacity="0.86"/>
<path d="M187.626 41.9417H185.721V43.831H187.626V41.9417Z" fill="black" fill-opacity="0.86"/>
<path d="M191.438 41.9417H189.534V43.831H191.438V41.9417Z" fill="black" fill-opacity="0.86"/>
<path d="M191.438 43.8271H189.534V45.7165H191.438V43.8271Z" fill="black" fill-opacity="0.86"/>
<path d="M197.155 41.9417H195.251V43.831H197.155V41.9417Z" fill="black" fill-opacity="0.86"/>
<path d="M200.967 41.9417H199.063V43.831H200.967V41.9417Z" fill="black" fill-opacity="0.86"/>
<path d="M204.78 41.9417H202.875V43.831H204.78V41.9417Z" fill="black" fill-opacity="0.86"/>
<path d="M206.688 41.9417H204.784V43.831H206.688V41.9417Z" fill="black" fill-opacity="0.86"/>
<path d="M212.404 41.9417H210.5V43.831H212.404V41.9417Z" fill="black" fill-opacity="0.86"/>
<path d="M214.309 41.9417H212.405V43.831H214.309V41.9417Z" fill="black" fill-opacity="0.86"/>
<path d="M218.122 41.9417H216.217V43.831H218.122V41.9417Z" fill="black" fill-opacity="0.86"/>
<path d="M176.188 43.8271H174.284V45.7165H176.188V43.8271Z" fill="black" fill-opacity="0.86"/>
<path d="M176.188 45.7163H174.284V47.6056H176.188V45.7163Z" fill="black" fill-opacity="0.86"/>
<path d="M176.188 47.6055H174.284V49.4948H176.188V47.6055Z" fill="black" fill-opacity="0.86"/>
<path d="M178.096 47.6055H176.192V49.4948H178.096V47.6055Z" fill="black" fill-opacity="0.86"/>
<path d="M180.001 43.8271H178.096V45.7165H180.001V43.8271Z" fill="black" fill-opacity="0.86"/>
<path d="M187.626 43.8271H185.721V45.7165H187.626V43.8271Z" fill="black" fill-opacity="0.86"/>
<path d="M193.343 43.8271H191.438V45.7165H193.343V43.8271Z" fill="black" fill-opacity="0.86"/>
<path d="M195.25 43.8271H193.346V45.7165H195.25V43.8271Z" fill="black" fill-opacity="0.86"/>
<path d="M199.063 43.8271H197.158V45.7165H199.063V43.8271Z" fill="black" fill-opacity="0.86"/>
<path d="M200.967 43.8271H199.063V45.7165H200.967V43.8271Z" fill="black" fill-opacity="0.86"/>
<path d="M206.688 43.8271H204.784V45.7165H206.688V43.8271Z" fill="black" fill-opacity="0.86"/>
<path d="M208.592 43.8271H206.688V45.7165H208.592V43.8271Z" fill="black" fill-opacity="0.86"/>
<path d="M210.5 43.8271H208.596V45.7165H210.5V43.8271Z" fill="black" fill-opacity="0.86"/>
<path d="M212.404 43.8271H210.5V45.7165H212.404V43.8271Z" fill="black" fill-opacity="0.86"/>
<path d="M218.122 43.8271H216.217V45.7165H218.122V43.8271Z" fill="black" fill-opacity="0.86"/>
<path d="M174.284 45.7163H172.379V47.6056H174.284V45.7163Z" fill="black" fill-opacity="0.86"/>
<path d="M174.284 43.8271H172.379V45.7165H174.284V43.8271Z" fill="black" fill-opacity="0.86"/>
<path d="M174.284 51.3811H172.379V53.2704H174.284V51.3811Z" fill="black" fill-opacity="0.86"/>
<path d="M180.001 45.7163H178.096V47.6056H180.001V45.7163Z" fill="black" fill-opacity="0.86"/>
<path d="M181.905 45.7163H180.001V47.6056H181.905V45.7163Z" fill="black" fill-opacity="0.86"/>
<path d="M183.813 45.7163H181.908V47.6056H183.813V45.7163Z" fill="black" fill-opacity="0.86"/>
<path d="M187.626 45.7163H185.721V47.6056H187.626V45.7163Z" fill="black" fill-opacity="0.86"/>
<path d="M193.343 45.7163H191.438V47.6056H193.343V45.7163Z" fill="black" fill-opacity="0.86"/>
<path d="M195.25 45.7163H193.346V47.6056H195.25V45.7163Z" fill="black" fill-opacity="0.86"/>
<path d="M195.25 49.4917H193.346V51.381H195.25V49.4917Z" fill="black" fill-opacity="0.86"/>
<path d="M197.155 45.7163H195.251V47.6056H197.155V45.7163Z" fill="black" fill-opacity="0.86"/>
<path d="M197.155 51.3811H195.251V53.2704H197.155V51.3811Z" fill="black" fill-opacity="0.86"/>
<path d="M199.063 51.3811H197.158V53.2704H199.063V51.3811Z" fill="black" fill-opacity="0.86"/>
<path d="M200.967 45.7163H199.063V47.6056H200.967V45.7163Z" fill="black" fill-opacity="0.86"/>
<path d="M204.78 45.7163H202.875V47.6056H204.78V45.7163Z" fill="black" fill-opacity="0.86"/>
<path d="M206.688 45.7163H204.784V47.6056H206.688V45.7163Z" fill="black" fill-opacity="0.86"/>
<path d="M212.404 45.7163H210.5V47.6056H212.404V45.7163Z" fill="black" fill-opacity="0.86"/>
<path d="M216.218 45.7163H214.313V47.6056H216.218V45.7163Z" fill="black" fill-opacity="0.86"/>
<path d="M218.122 45.7163H216.217V47.6056H218.122V45.7163Z" fill="black" fill-opacity="0.86"/>
<path d="M180.001 47.6055H178.096V49.4948H180.001V47.6055Z" fill="black" fill-opacity="0.86"/>
<path d="M185.718 47.6055H183.813V49.4948H185.718V47.6055Z" fill="black" fill-opacity="0.86"/>
<path d="M187.626 49.4949H185.721V51.3842H187.626V49.4949Z" fill="black" fill-opacity="0.86"/>
<path d="M189.53 47.6055H187.625V49.4948H189.53V47.6055Z" fill="black" fill-opacity="0.86"/>
<path d="M191.438 47.6055H189.534V49.4948H191.438V47.6055Z" fill="black" fill-opacity="0.86"/>
<path d="M193.343 47.6055H191.438V49.4948H193.343V47.6055Z" fill="black" fill-opacity="0.86"/>
<path d="M200.967 47.6055H199.063V49.4948H200.967V47.6055Z" fill="black" fill-opacity="0.86"/>
<path d="M199.063 47.6055H197.158V49.4948H199.063V47.6055Z" fill="black" fill-opacity="0.86"/>
<path d="M202.875 47.6055H200.971V49.4948H202.875V47.6055Z" fill="black" fill-opacity="0.86"/>
<path d="M202.875 45.7163H200.971V47.6056H202.875V45.7163Z" fill="black" fill-opacity="0.86"/>
<path d="M206.688 47.6055H204.784V49.4948H206.688V47.6055Z" fill="black" fill-opacity="0.86"/>
<path d="M208.592 47.6055H206.688V49.4948H208.592V47.6055Z" fill="black" fill-opacity="0.86"/>
<path d="M212.404 47.6055H210.5V49.4948H212.404V47.6055Z" fill="black" fill-opacity="0.86"/>
<path d="M214.309 47.6055H212.405V49.4948H214.309V47.6055Z" fill="black" fill-opacity="0.86"/>
<path d="M218.122 47.6055H216.217V49.4948H218.122V47.6055Z" fill="black" fill-opacity="0.86"/>
<path d="M174.284 49.4917H172.379V51.381H174.284V49.4917Z" fill="black" fill-opacity="0.86"/>
<path d="M176.188 49.4917H174.284V51.381H176.188V49.4917Z" fill="black" fill-opacity="0.86"/>
<path d="M183.813 49.4917H181.908V51.381H183.813V49.4917Z" fill="black" fill-opacity="0.86"/>
<path d="M185.718 49.4917H183.813V51.381H185.718V49.4917Z" fill="black" fill-opacity="0.86"/>
<path d="M199.063 49.4917H197.158V51.381H199.063V49.4917Z" fill="black" fill-opacity="0.86"/>
<path d="M212.404 49.4917H210.5V51.381H212.404V49.4917Z" fill="black" fill-opacity="0.86"/>
<path d="M216.218 49.4917H214.313V51.381H216.218V49.4917Z" fill="black" fill-opacity="0.86"/>
<path d="M178.096 51.3811H176.192V53.2704H178.096V51.3811Z" fill="black" fill-opacity="0.86"/>
<path d="M180.001 51.3811H178.096V53.2704H180.001V51.3811Z" fill="black" fill-opacity="0.86"/>
<path d="M181.905 49.4949H180.001V51.3842H181.905V49.4949Z" fill="black" fill-opacity="0.86"/>
<path d="M183.813 51.3811H181.908V53.2704H183.813V51.3811Z" fill="black" fill-opacity="0.86"/>
<path d="M185.718 51.3811H183.813V53.2704H185.718V51.3811Z" fill="black" fill-opacity="0.86"/>
<path d="M189.53 51.3811H187.625V53.2704H189.53V51.3811Z" fill="black" fill-opacity="0.86"/>
<path d="M191.438 51.3811H189.534V53.2704H191.438V51.3811Z" fill="black" fill-opacity="0.86"/>
<path d="M193.343 51.3811H191.438V53.2704H193.343V51.3811Z" fill="black" fill-opacity="0.86"/>
<path d="M200.967 51.3811H199.063V53.2704H200.967V51.3811Z" fill="black" fill-opacity="0.86"/>
<path d="M202.875 51.3811H200.971V53.2704H202.875V51.3811Z" fill="black" fill-opacity="0.86"/>
<path d="M204.78 51.3811H202.875V53.2704H204.78V51.3811Z" fill="black" fill-opacity="0.86"/>
<path d="M206.688 51.3811H204.784V53.2704H206.688V51.3811Z" fill="black" fill-opacity="0.86"/>
<path d="M208.592 51.3811H206.688V53.2704H208.592V51.3811Z" fill="black" fill-opacity="0.86"/>
<path d="M210.5 51.3811H208.596V53.2704H210.5V51.3811Z" fill="black" fill-opacity="0.86"/>
<path d="M212.404 51.3811H210.5V53.2704H212.404V51.3811Z" fill="black" fill-opacity="0.86"/>
<path d="M216.218 51.3811H214.313V53.2704H216.218V51.3811Z" fill="black" fill-opacity="0.86"/>
<path d="M189.53 53.27H187.625V55.1593H189.53V53.27Z" fill="black" fill-opacity="0.86"/>
<path d="M195.25 53.27H193.346V55.1593H195.25V53.27Z" fill="black" fill-opacity="0.86"/>
<path d="M197.155 53.27H195.251V55.1593H197.155V53.27Z" fill="black" fill-opacity="0.86"/>
<path d="M202.875 53.27H200.971V55.1593H202.875V53.27Z" fill="black" fill-opacity="0.86"/>
<path d="M210.5 53.27H208.596V55.1593H210.5V53.27Z" fill="black" fill-opacity="0.86"/>
<path d="M218.122 53.27H216.217V55.1593H218.122V53.27Z" fill="black" fill-opacity="0.86"/>
<path d="M174.284 55.1594H172.379V57.0487H174.284V55.1594Z" fill="black" fill-opacity="0.86"/>
<path d="M176.188 55.1594H174.284V57.0487H176.188V55.1594Z" fill="black" fill-opacity="0.86"/>
<path d="M178.096 55.1594H176.192V57.0487H178.096V55.1594Z" fill="black" fill-opacity="0.86"/>
<path d="M180.001 55.1594H178.096V57.0487H180.001V55.1594Z" fill="black" fill-opacity="0.86"/>
<path d="M181.905 55.1594H180.001V57.0487H181.905V55.1594Z" fill="black" fill-opacity="0.86"/>
<path d="M183.813 55.1594H181.908V57.0487H183.813V55.1594Z" fill="black" fill-opacity="0.86"/>
<path d="M185.718 55.1594H183.813V57.0487H185.718V55.1594Z" fill="black" fill-opacity="0.86"/>
<path d="M189.53 55.1594H187.625V57.0487H189.53V55.1594Z" fill="black" fill-opacity="0.86"/>
<path d="M189.53 57.0452H187.625V58.9345H189.53V57.0452Z" fill="black" fill-opacity="0.86"/>
<path d="M189.53 60.824H187.625V62.7133H189.53V60.824Z" fill="black" fill-opacity="0.86"/>
<path d="M191.438 55.1594H189.534V57.0487H191.438V55.1594Z" fill="black" fill-opacity="0.86"/>
<path d="M193.343 55.1594H191.438V57.0487H193.343V55.1594Z" fill="black" fill-opacity="0.86"/>
<path d="M202.875 55.1594H200.971V57.0487H202.875V55.1594Z" fill="black" fill-opacity="0.86"/>
<path d="M206.688 55.1594H204.784V57.0487H206.688V55.1594Z" fill="black" fill-opacity="0.86"/>
<path d="M210.5 55.1594H208.596V57.0487H210.5V55.1594Z" fill="black" fill-opacity="0.86"/>
<path d="M212.404 55.1594H210.5V57.0487H212.404V55.1594Z" fill="black" fill-opacity="0.86"/>
<path d="M214.309 55.1594H212.405V57.0487H214.309V55.1594Z" fill="black" fill-opacity="0.86"/>
<path d="M218.122 55.1594H216.217V57.0487H218.122V55.1594Z" fill="black" fill-opacity="0.86"/>
<path d="M174.284 57.0452H172.379V58.9345H174.284V57.0452Z" fill="black" fill-opacity="0.86"/>
<path d="M185.718 57.0452H183.813V58.9345H185.718V57.0452Z" fill="black" fill-opacity="0.86"/>
<path d="M199.063 57.0452H197.158V58.9345H199.063V57.0452Z" fill="black" fill-opacity="0.86"/>
<path d="M200.967 57.0452H199.063V58.9345H200.967V57.0452Z" fill="black" fill-opacity="0.86"/>
<path d="M202.875 57.0452H200.971V58.9345H202.875V57.0452Z" fill="black" fill-opacity="0.86"/>
<path d="M200.967 58.9346H199.063V60.8239H200.967V58.9346Z" fill="black" fill-opacity="0.86"/>
<path d="M210.5 57.0452H208.596V58.9345H210.5V57.0452Z" fill="black" fill-opacity="0.86"/>
<path d="M218.122 57.0452H216.217V58.9345H218.122V57.0452Z" fill="black" fill-opacity="0.86"/>
<path d="M174.284 58.9346H172.379V60.8239H174.284V58.9346Z" fill="black" fill-opacity="0.86"/>
<path d="M178.096 58.9346H176.192V60.8239H178.096V58.9346Z" fill="black" fill-opacity="0.86"/>
<path d="M180.001 58.9346H178.096V60.8239H180.001V58.9346Z" fill="black" fill-opacity="0.86"/>
<path d="M181.905 58.9346H180.001V60.8239H181.905V58.9346Z" fill="black" fill-opacity="0.86"/>
<path d="M185.718 58.9346H183.813V60.8239H185.718V58.9346Z" fill="black" fill-opacity="0.86"/>
<path d="M191.438 58.9346H189.534V60.8239H191.438V58.9346Z" fill="black" fill-opacity="0.86"/>
<path d="M191.438 62.7095H189.534V64.5988H191.438V62.7095Z" fill="black" fill-opacity="0.86"/>
<path d="M197.155 58.9346H195.251V60.8239H197.155V58.9346Z" fill="black" fill-opacity="0.86"/>
<path d="M197.155 60.8203H195.251V62.7096H197.155V60.8203Z" fill="black" fill-opacity="0.86"/>
<path d="M197.155 57.0452H195.251V58.9345H197.155V57.0452Z" fill="black" fill-opacity="0.86"/>
<path d="M197.155 55.1594H195.251V57.0487H197.155V55.1594Z" fill="black" fill-opacity="0.86"/>
<path d="M195.25 58.9346H193.346V60.8239H195.25V58.9346Z" fill="black" fill-opacity="0.86"/>
<path d="M200.967 53.27H199.063V55.1593H200.967V53.27Z" fill="black" fill-opacity="0.86"/>
<path d="M204.78 58.9346H202.875V60.8239H204.78V58.9346Z" fill="black" fill-opacity="0.86"/>
<path d="M206.688 58.9346H204.784V60.8239H206.688V58.9346Z" fill="black" fill-opacity="0.86"/>
<path d="M208.592 58.9346H206.688V60.8239H208.592V58.9346Z" fill="black" fill-opacity="0.86"/>
<path d="M210.5 58.9346H208.596V60.8239H210.5V58.9346Z" fill="black" fill-opacity="0.86"/>
<path d="M216.218 58.9346H214.313V60.8239H216.218V58.9346Z" fill="black" fill-opacity="0.86"/>
<path d="M214.313 57.0452H212.408V58.9345H214.313V57.0452Z" fill="black" fill-opacity="0.86"/>
<path d="M218.122 58.9346H216.217V60.8239H218.122V58.9346Z" fill="black" fill-opacity="0.86"/>
<path d="M174.284 60.824H172.379V62.7133H174.284V60.824Z" fill="black" fill-opacity="0.86"/>
<path d="M178.096 60.824H176.192V62.7133H178.096V60.824Z" fill="black" fill-opacity="0.86"/>
<path d="M180.001 60.824H178.096V62.7133H180.001V60.824Z" fill="black" fill-opacity="0.86"/>
<path d="M181.905 60.824H180.001V62.7133H181.905V60.824Z" fill="black" fill-opacity="0.86"/>
<path d="M185.718 60.824H183.813V62.7133H185.718V60.824Z" fill="black" fill-opacity="0.86"/>
<path d="M193.343 60.824H191.438V62.7133H193.343V60.824Z" fill="black" fill-opacity="0.86"/>
<path d="M200.967 60.824H199.063V62.7133H200.967V60.824Z" fill="black" fill-opacity="0.86"/>
<path d="M202.875 60.824H200.971V62.7133H202.875V60.824Z" fill="black" fill-opacity="0.86"/>
<path d="M202.875 64.5986H200.971V66.4879H202.875V64.5986Z" fill="black" fill-opacity="0.86"/>
<path d="M204.78 60.824H202.875V62.7133H204.78V60.824Z" fill="black" fill-opacity="0.86"/>
<path d="M210.5 60.824H208.596V62.7133H210.5V60.824Z" fill="black" fill-opacity="0.86"/>
<path d="M212.404 60.824H210.5V62.7133H212.404V60.824Z" fill="black" fill-opacity="0.86"/>
<path d="M214.309 60.824H212.405V62.7133H214.309V60.824Z" fill="black" fill-opacity="0.86"/>
<path d="M216.218 60.824H214.313V62.7133H216.218V60.824Z" fill="black" fill-opacity="0.86"/>
<path d="M218.122 60.824H216.217V62.7133H218.122V60.824Z" fill="black" fill-opacity="0.86"/>
<path d="M174.284 62.7095H172.379V64.5988H174.284V62.7095Z" fill="black" fill-opacity="0.86"/>
<path d="M178.096 62.7095H176.192V64.5988H178.096V62.7095Z" fill="black" fill-opacity="0.86"/>
<path d="M180.001 62.7095H178.096V64.5988H180.001V62.7095Z" fill="black" fill-opacity="0.86"/>
<path d="M181.905 62.7095H180.001V64.5988H181.905V62.7095Z" fill="black" fill-opacity="0.86"/>
<path d="M185.718 62.7095H183.813V64.5988H185.718V62.7095Z" fill="black" fill-opacity="0.86"/>
<path d="M189.53 62.7095H187.625V64.5988H189.53V62.7095Z" fill="black" fill-opacity="0.86"/>
<path d="M195.25 62.7095H193.346V64.5988H195.25V62.7095Z" fill="black" fill-opacity="0.86"/>
<path d="M199.063 62.7095H197.158V64.5988H199.063V62.7095Z" fill="black" fill-opacity="0.86"/>
<path d="M204.78 62.7095H202.875V64.5988H204.78V62.7095Z" fill="black" fill-opacity="0.86"/>
<path d="M208.592 62.7095H206.688V64.5988H208.592V62.7095Z" fill="black" fill-opacity="0.86"/>
<path d="M210.5 62.7095H208.596V64.5988H210.5V62.7095Z" fill="black" fill-opacity="0.86"/>
<path d="M216.218 62.7095H214.313V64.5988H216.218V62.7095Z" fill="black" fill-opacity="0.86"/>
<path d="M218.122 62.7095H216.217V64.5988H218.122V62.7095Z" fill="black" fill-opacity="0.86"/>
<path d="M174.284 64.5986H172.379V66.4879H174.284V64.5986Z" fill="black" fill-opacity="0.86"/>
<path d="M185.718 64.5986H183.813V66.4879H185.718V64.5986Z" fill="black" fill-opacity="0.86"/>
<path d="M191.438 64.5986H189.534V66.4879H191.438V64.5986Z" fill="black" fill-opacity="0.86"/>
<path d="M195.25 64.5986H193.346V66.4879H195.25V64.5986Z" fill="black" fill-opacity="0.86"/>
<path d="M197.155 64.5986H195.251V66.4879H197.155V64.5986Z" fill="black" fill-opacity="0.86"/>
<path d="M204.78 64.5986H202.875V66.4879H204.78V64.5986Z" fill="black" fill-opacity="0.86"/>
<path d="M210.5 64.5986H208.596V66.4879H210.5V64.5986Z" fill="black" fill-opacity="0.86"/>
<path d="M212.404 64.5986H210.5V66.4879H212.404V64.5986Z" fill="black" fill-opacity="0.86"/>
<path d="M216.218 64.5986H214.313V66.4879H216.218V64.5986Z" fill="black" fill-opacity="0.86"/>
<path d="M174.284 66.4883H172.379V68.3776H174.284V66.4883Z" fill="black" fill-opacity="0.86"/>
<path d="M176.188 66.4883H174.284V68.3776H176.188V66.4883Z" fill="black" fill-opacity="0.86"/>
<path d="M178.096 66.4883H176.192V68.3776H178.096V66.4883Z" fill="black" fill-opacity="0.86"/>
<path d="M180.001 66.4883H178.096V68.3776H180.001V66.4883Z" fill="black" fill-opacity="0.86"/>
<path d="M181.905 66.4883H180.001V68.3776H181.905V66.4883Z" fill="black" fill-opacity="0.86"/>
<path d="M183.813 66.4883H181.908V68.3776H183.813V66.4883Z" fill="black" fill-opacity="0.86"/>
<path d="M185.718 66.4883H183.813V68.3776H185.718V66.4883Z" fill="black" fill-opacity="0.86"/>
<path d="M189.53 66.4883H187.625V68.3776H189.53V66.4883Z" fill="black" fill-opacity="0.86"/>
<path d="M191.438 66.4883H189.534V68.3776H191.438V66.4883Z" fill="black" fill-opacity="0.86"/>
<path d="M193.343 66.4883H191.438V68.3776H193.343V66.4883Z" fill="black" fill-opacity="0.86"/>
<path d="M200.967 66.4883H199.063V68.3776H200.967V66.4883Z" fill="black" fill-opacity="0.86"/>
<path d="M199.063 66.4883H197.158V68.3776H199.063V66.4883Z" fill="black" fill-opacity="0.86"/>
<path d="M202.875 66.4883H200.971V68.3776H202.875V66.4883Z" fill="black" fill-opacity="0.86"/>
<path d="M204.78 66.4883H202.875V68.3776H204.78V66.4883Z" fill="black" fill-opacity="0.86"/>
<path d="M208.592 66.4883H206.688V68.3776H208.592V66.4883Z" fill="black" fill-opacity="0.86"/>
<path d="M218.122 66.4883H216.217V68.3776H218.122V66.4883Z" fill="black" fill-opacity="0.86"/>
<path d="M214.313 66.4883H212.408V68.3776H214.313V66.4883Z" fill="black" fill-opacity="0.86"/>
<path d="M212.404 66.4883H210.5V68.3776H212.404V66.4883Z" fill="black" fill-opacity="0.86"/>
<path fill-rule="evenodd" clip-rule="evenodd" d="M167.596 33.0254C167.596 33.6129 168.074 34.088 168.667 34.088C169.255 34.088 169.734 33.6129 169.734 33.0291V22.2154C169.734 20.5292 171.116 19.1585 172.815 19.1585H183.734C184.326 19.1585 184.805 18.6834 184.805 18.096C184.805 17.5085 184.326 17.0334 183.734 17.0334H172.815C169.939 17.0334 167.596 19.3543 167.596 22.2118V33.0254ZM221.142 33.4699C221.142 34.0573 221.62 34.5324 222.213 34.5324C222.805 34.5324 223.284 34.0573 223.28 33.4663V22.6526C223.28 19.7987 220.94 17.4743 218.06 17.4743H207.259C206.666 17.4743 206.188 17.9493 206.188 18.5368C206.188 19.1242 206.666 19.5993 207.259 19.5993H218.06C219.76 19.5993 221.142 20.97 221.142 22.6562V33.4699ZM218.06 73.0002H207.259C206.666 73.0002 206.188 72.5252 206.188 71.9377C206.188 71.3502 206.666 70.8752 207.259 70.8752H218.06C219.76 70.8752 221.142 69.5045 221.142 67.8182V57.059C221.142 56.4715 221.62 55.9965 222.213 55.9965C222.805 55.9965 223.284 56.4715 223.284 57.059V67.8182C223.284 70.6794 220.94 73.0002 218.06 73.0002ZM172.536 72.9999H183.455C184.043 72.9999 184.53 72.5284 184.53 71.941C184.53 71.3535 184.051 70.8785 183.459 70.8785H172.54C170.84 70.8785 169.459 69.5077 169.459 67.8215V57.0622C169.459 56.4748 168.98 55.9997 168.388 55.9997C167.795 55.9997 167.317 56.4748 167.317 57.0622V67.8215C167.317 70.6754 169.656 72.9999 172.536 72.9999Z" fill="#1B8DE4"/>
<path d="M6.32164 74H51.6784C55.1673 74 58 71.2712 58 67.9101V40.0898C58 36.7288 55.1673 34 51.6784 34H6.32164C2.83266 34 0 36.7288 0 40.0898V67.9101C0 71.2712 2.83266 74 6.32164 74ZM8.87789 44.8819C8.01428 44.183 7.91066 42.9185 8.63609 42.0865C9.36152 41.2546 10.6742 41.1547 11.5378 41.8536L29.0173 56.0965L46.4967 41.8536C47.3603 41.1547 48.6385 41.2546 49.3984 42.0865C50.1239 42.9185 50.0203 44.1498 49.1567 44.8819L38.2406 53.7671L49.1912 63.1514C50.0548 63.8835 50.1239 65.1148 49.3639 65.9467C48.9494 66.3794 48.3967 66.6123 47.8439 66.6123C47.3603 66.6123 46.8767 66.4459 46.4967 66.1131L35.0971 56.3627L30.3645 60.223C29.9845 60.5225 29.5009 60.6889 29.0518 60.6889C28.5682 60.6889 28.1191 60.5225 27.7391 60.223L23.0065 56.3627L11.6069 66.1131C11.2269 66.4459 10.7433 66.6123 10.2597 66.6123C9.70695 66.6123 9.11973 66.3794 8.73974 65.9467C7.97977 65.1481 8.04885 63.8835 8.91246 63.1514L19.863 53.7671L8.87789 44.8819Z" fill="#5B5B5B"/>
<path d="M130.694 16.6226V4.24283C130.694 1.88893 128.813 0 126.47 0H95.224C92.8806 0 91 1.88893 91 4.24283V68.7571C91 71.111 92.8806 73 95.224 73H126.47C128.813 73 130.694 71.111 130.694 68.7571V48.2695H125.515V55.9415C125.515 56.9005 124.734 57.656 123.779 57.656H97.8857C96.9309 57.656 96.1498 56.8714 96.1498 55.9415V12.4379C96.1498 11.4789 96.9309 10.6943 97.8857 10.6943H123.779C124.734 10.6943 125.515 11.4789 125.515 12.4379V16.5935H130.694V16.6226ZM110.153 62.422H113.161C114.782 62.422 116.055 63.7297 116.055 65.328C116.055 66.9263 114.753 68.2341 113.161 68.2341H110.153C108.532 68.2341 107.259 66.8973 107.259 65.328C107.259 63.7006 108.561 62.422 110.153 62.422ZM115.302 6.65486H106.218C105.495 6.65486 104.916 6.04458 104.916 5.31807C104.916 4.62062 105.495 4.01035 106.218 4.01035H115.302C116.026 4.01035 116.604 4.62062 116.604 5.31807C116.604 6.04458 116.026 6.65486 115.302 6.65486Z" fill="#5B5B5B"/>
<path d="M145.189 20.7783H106.073C104.251 20.7783 102.775 22.2604 102.775 24.0912V40.7719C102.775 42.6028 104.251 44.0848 106.073 44.0848H110.442V49.8098C110.442 51.1756 112.12 51.844 113.075 50.8559L119.411 44.0848H145.189C147.011 44.0848 148.487 42.6028 148.487 40.7719V24.0912C148.487 22.2604 147.011 20.7783 145.189 20.7783ZM117.125 36.6744C116.778 37.1975 116.286 37.6044 115.621 37.895C114.955 38.1856 114.174 38.3309 113.248 38.3309C112.351 38.3309 111.57 38.1856 110.905 37.895C110.239 37.6044 109.719 37.1975 109.343 36.6744C108.966 36.1223 108.764 35.4829 108.735 34.6983H110.818C110.847 35.1052 110.963 35.4539 111.194 35.7154C111.426 35.977 111.686 36.1804 112.062 36.3257C112.409 36.471 112.814 36.5291 113.248 36.5291C113.711 36.5291 114.116 36.471 114.463 36.3257C114.811 36.1804 115.071 36.006 115.273 35.7445C115.476 35.4829 115.563 35.1923 115.563 34.8727C115.563 34.5821 115.476 34.3205 115.302 34.1171C115.129 33.9137 114.897 33.7393 114.579 33.6231C114.261 33.4778 113.914 33.3615 113.48 33.2743L112.149 32.9256C111.194 32.6641 110.442 32.3153 109.892 31.7923C109.343 31.2982 109.053 30.6298 109.053 29.7871C109.053 29.0896 109.227 28.5084 109.603 27.9853C109.979 27.4622 110.471 27.0554 111.136 26.7648C111.773 26.4742 112.496 26.3289 113.335 26.3289C114.174 26.3289 114.897 26.4742 115.505 26.7648C116.141 27.0554 116.604 27.4622 116.98 27.9563C117.328 28.4503 117.53 29.0606 117.53 29.6999H115.505C115.447 29.2059 115.216 28.8281 114.839 28.5375C114.434 28.2469 113.943 28.1306 113.306 28.1306C112.872 28.1306 112.496 28.1887 112.178 28.3341C111.86 28.4794 111.628 28.6537 111.455 28.8862C111.281 29.1187 111.194 29.3802 111.194 29.6708C111.194 29.9033 111.252 30.1358 111.368 30.3102C111.483 30.4845 111.628 30.6298 111.831 30.7751C112.033 30.8914 112.236 31.0076 112.467 31.0948C112.699 31.182 112.93 31.2401 113.19 31.2982L114.29 31.5598C114.724 31.676 115.158 31.7922 115.563 31.9666C115.968 32.141 116.344 32.3735 116.662 32.635C116.98 32.8965 117.241 33.2162 117.443 33.594C117.646 33.9718 117.733 34.4077 117.733 34.9308C117.646 35.5701 117.472 36.1804 117.125 36.6744ZM131.706 38.1565H129.681V30.1358H129.566L126.354 38.1274H124.85L121.638 30.1067H121.523V38.1565H119.497V26.4742H122.072L125.515 34.9308H125.66L129.103 26.4742H131.678V38.1565H131.706ZM142.006 36.6744C141.659 37.1975 141.167 37.6044 140.502 37.895C139.836 38.1856 139.055 38.3309 138.129 38.3309C137.232 38.3309 136.451 38.1856 135.786 37.895C135.12 37.6044 134.6 37.1975 134.223 36.6744C133.847 36.1223 133.645 35.4829 133.616 34.6983H135.699C135.728 35.1052 135.844 35.4539 136.075 35.7154C136.307 35.977 136.596 36.1804 136.943 36.3257C137.29 36.471 137.695 36.5291 138.129 36.5291C138.592 36.5291 138.997 36.471 139.344 36.3257C139.692 36.1804 139.952 36.006 140.154 35.7445C140.357 35.4829 140.444 35.1923 140.444 34.8727C140.444 34.5821 140.357 34.3205 140.183 34.1171C140.01 33.9137 139.778 33.7393 139.46 33.6231C139.142 33.4778 138.795 33.3615 138.361 33.2743L137.03 32.9256C136.075 32.6641 135.323 32.3153 134.773 31.7923C134.224 31.2982 133.934 30.6298 133.934 29.7871C133.934 29.0896 134.108 28.5084 134.484 27.9853C134.86 27.4622 135.352 27.0554 136.017 26.7648C136.654 26.4742 137.377 26.3289 138.216 26.3289C139.055 26.3289 139.778 26.4742 140.386 26.7648C141.022 27.0554 141.485 27.4622 141.861 27.9563C142.209 28.4503 142.411 29.0606 142.411 29.6999H140.386C140.328 29.2059 140.097 28.8281 139.72 28.5375C139.315 28.2469 138.824 28.1306 138.187 28.1306C137.753 28.1306 137.377 28.1887 137.059 28.3341C136.741 28.4794 136.509 28.6537 136.335 28.8862C136.162 29.1187 136.075 29.3802 136.075 29.6708C136.075 29.9033 136.133 30.1358 136.249 30.3102C136.364 30.4845 136.509 30.6298 136.712 30.7751C136.914 30.8914 137.117 31.0076 137.348 31.0948C137.58 31.182 137.811 31.2401 138.071 31.2982L139.171 31.5598C139.605 31.676 140.039 31.7922 140.444 31.9666C140.849 32.141 141.225 32.3735 141.543 32.635C141.861 32.8965 142.122 33.2162 142.324 33.594C142.527 33.9718 142.614 34.4077 142.614 34.9308C142.527 35.5701 142.353 36.1804 142.006 36.6744Z" fill="#1B8DE4"/>
<circle cx="54" cy="37" r="9" fill="#1B8DE4"/>
<path d="M55.7988 41.2095H55.729C55.3905 41.1418 55.0688 41.091 54.7642 41.0571C54.4637 41.0275 54.1632 41.0127 53.8628 41.0127C53.5581 41.0127 53.2534 41.0275 52.9487 41.0571C52.6483 41.091 52.333 41.1418 52.0029 41.2095H51.9331C51.8442 41.2095 51.766 41.1756 51.6982 41.1079C51.6305 41.0444 51.5967 40.9704 51.5967 40.8857C51.5967 40.8053 51.6221 40.7334 51.6729 40.6699C51.7279 40.6064 51.7935 40.5684 51.8696 40.5557C52.0177 40.5218 52.1659 40.4943 52.314 40.4731C52.4621 40.4478 52.6081 40.4287 52.752 40.416V34.4365C52.5488 34.627 52.3817 34.7772 52.2505 34.8872C52.1235 34.9972 52.0537 35.0586 52.041 35.0713C51.9775 35.1221 51.9035 35.1475 51.8188 35.1475C51.7215 35.1475 51.6432 35.1157 51.584 35.0522C51.5247 34.9845 51.4951 34.9084 51.4951 34.8237C51.4951 34.7772 51.5036 34.7306 51.5205 34.6841C51.5417 34.6375 51.5713 34.5973 51.6094 34.5635C51.6094 34.5635 51.6538 34.5233 51.7427 34.4429C51.8358 34.3625 51.9564 34.2567 52.1045 34.1255C52.2526 33.9901 52.4219 33.8314 52.6123 33.6494C52.807 33.4674 53.008 33.2749 53.2153 33.0718C53.4227 32.8644 53.63 32.6507 53.8374 32.4307C54.0448 32.2064 54.2394 31.9863 54.4214 31.7705C54.4552 31.7367 54.4933 31.7091 54.5356 31.688C54.578 31.6626 54.6266 31.6499 54.6816 31.6499C54.7705 31.6499 54.8488 31.6859 54.9165 31.7578C54.9884 31.8298 55.0181 31.908 55.0054 31.9927V40.416C55.1408 40.4372 55.2804 40.4583 55.4243 40.4795C55.5682 40.4964 55.7142 40.5218 55.8623 40.5557C55.9427 40.5684 56.0062 40.6064 56.0527 40.6699C56.0993 40.7334 56.1226 40.8053 56.1226 40.8857C56.1226 40.9958 56.0845 41.0762 56.0083 41.127C55.9321 41.182 55.8623 41.2095 55.7988 41.2095Z" fill="white"/>
</svg>
