<svg width="110" height="104" viewBox="0 0 110 104" fill="none" xmlns="http://www.w3.org/2000/svg">
<path d="M86.6693 7.16969C77.4227 7.16969 69.3577 3.64509 63.4635 0C57.583 3.64509 49.5042 7.16969 40.2576 7.16969C36.5755 7.16969 32.8521 6.61238 29.115 5.49777V48.6364C29.115 55.1735 30.8874 61.5449 34.3772 67.5698C37.4411 72.8266 41.8102 77.9026 47.3884 82.6322C53.4337 87.7534 59.6439 91.3985 63.4635 93.4018C67.283 91.3985 73.4932 87.7685 79.5385 82.6322C85.1167 77.9026 89.4859 72.8416 92.5498 67.5698C96.0396 61.5599 97.8119 55.1885 97.8119 48.6364V5.49777C94.0748 6.61238 90.3377 7.16969 86.6693 7.16969ZM93.5115 48.6364C93.5115 54.2697 91.959 59.7826 88.9225 65.0243C86.1335 69.8292 82.0941 74.4985 76.9143 78.8967C72.1193 82.9636 67.2143 86.0513 63.4772 88.13C59.7401 86.0513 54.8351 82.9636 50.0401 78.8967C44.8603 74.4985 40.8209 69.8292 38.0319 65.0243C34.9817 59.7826 33.4429 54.2697 33.4429 48.6364V11.3118C35.7374 11.7035 38.0319 11.8842 40.2851 11.8842C48.0341 11.8842 55.8381 9.68511 63.4909 5.36221C71.1438 9.70017 78.934 11.8842 86.6968 11.8842C88.9638 11.8842 91.2445 11.6884 93.539 11.3118V48.6364H93.5115Z" fill="#A0A0A0"/>
<path d="M63.4634 82.7976C60.3995 80.9751 56.4838 78.3994 52.6642 75.161C47.8829 71.0942 44.1733 66.8315 41.6452 62.4936C39.0485 58.02 37.7295 53.3507 37.7295 48.6362V16.5382C38.5813 16.5834 39.4332 16.6135 40.2713 16.6135C48.034 16.6135 55.838 14.6103 63.4771 10.6338C71.1162 14.6103 78.9064 16.6135 86.6829 16.6135C87.521 16.6135 88.3729 16.5834 89.2247 16.5382V48.6362C89.2247 53.3507 87.9057 58.02 85.309 62.4936C82.7809 66.8315 79.0713 71.0942 74.29 75.161C70.443 78.3994 66.5273 80.9751 63.4634 82.7976Z" fill="#424242" fill-opacity="0.38"/>
<path d="M106.751 71.1174H102.836H95.8417H80.3097H73.3154H69.4005C67.6095 71.1174 66.1511 72.6376 66.1511 74.5046V100.613C66.1511 102.48 67.6095 104 69.4005 104H106.751C108.542 104 110 102.48 110 100.613V74.5046C110 72.6376 108.542 71.1174 106.751 71.1174ZM90.6313 87.5809C90.3127 87.7801 90.1145 88.1417 90.1145 88.5254V94.5101H86.0368V88.5254C86.0368 88.1343 85.8386 87.7801 85.5201 87.5809C84.0193 86.6363 83.1202 84.9833 83.1202 83.1532C83.1202 80.3048 85.3431 77.9877 88.0757 77.9877C90.8083 77.9877 93.0312 80.3048 93.0312 83.1532C93.0312 84.9833 92.1321 86.6363 90.6313 87.5809Z" fill="#5B5B5B"/>
<path d="M80.0284 61.688C80.0284 57.0242 83.6671 53.2238 88.1483 53.2238C92.6224 53.2238 96.2682 57.0168 96.2682 61.688V67.8571H102.555V61.688C102.555 53.4083 96.0913 46.6709 88.1483 46.6709C80.2053 46.6709 73.7419 53.4083 73.7419 61.688V67.8571H80.0284V61.688Z" fill="#5B5B5B"/>
<ellipse cx="87.9576" cy="88.3988" rx="10.9623" ry="10.6138" fill="white"/>
<path d="M104.725 72.4844C104.78 72.3705 104.703 72.233 104.585 72.2288C103.717 72.2038 101.517 73.6764 101.058 73.9848C95.8363 77.6287 91.6786 83.0495 88.2269 88.6425C88.1284 88.8009 87.9212 88.8231 87.7972 88.687C86.1819 86.9046 80.8643 82.6091 79.2516 83.4107C79.1838 83.4454 79.148 83.5274 79.171 83.6052C79.2964 84.04 79.7644 84.3956 80.0394 84.7485C83.1816 87.9882 85.8366 91.6724 87.8023 95.7956C88.122 96.4652 89.0083 96.4458 89.3024 95.7623C96.6586 78.6609 104.033 73.9223 104.725 72.4844Z" fill="#1B8DE4"/>
<rect y="23.3354" width="63.982" height="18.8906" rx="9.44528" fill="#E9EBEE"/>
<mask id="mask0_46_9926" style="mask-type:alpha" maskUnits="userSpaceOnUse" x="10" y="28" width="9" height="9">
<path d="M18.7424 33.498L17.337 32.755L18.7424 32.0121C18.9861 31.8858 19.0673 31.6034 18.9292 31.388L18.2225 30.2661C18.0844 30.0432 17.7757 29.9689 17.5401 30.0952L16.1347 30.8382V29.3522C16.1347 29.0996 15.9073 28.8916 15.6311 28.8916H14.2095C13.9333 28.8916 13.7058 29.0996 13.7058 29.3522V30.8382L12.3005 30.0952C12.0568 29.9689 11.7562 30.0432 11.6181 30.2661L10.9113 31.388C10.7732 31.6109 10.8545 31.8858 11.0982 32.0121L12.5035 32.755L11.0982 33.498C10.8545 33.6243 10.7732 33.9066 10.9113 34.1221L11.6181 35.244C11.7562 35.4669 12.0649 35.5412 12.3005 35.4149L13.7058 34.6719V36.1578C13.7058 36.4104 13.9333 36.6185 14.2095 36.6185H15.6311C15.9073 36.6185 16.1347 36.4104 16.1347 36.1578V34.6719L17.5401 35.4149C17.7838 35.5412 18.0844 35.4669 18.2225 35.244L18.9292 34.1221C19.0673 33.9066 18.9861 33.6243 18.7424 33.498Z" fill="white"/>
</mask>
<g mask="url(#mask0_46_9926)">
<path d="M18.7424 33.498L17.337 32.755L18.7424 32.0121C18.9861 31.8858 19.0673 31.6034 18.9292 31.388L18.2225 30.2661C18.0844 30.0432 17.7757 29.9689 17.5401 30.0952L16.1347 30.8382V29.3522C16.1347 29.0996 15.9073 28.8916 15.6311 28.8916H14.2095C13.9333 28.8916 13.7058 29.0996 13.7058 29.3522V30.8382L12.3005 30.0952C12.0568 29.9689 11.7562 30.0432 11.6181 30.2661L10.9113 31.388C10.7732 31.6109 10.8545 31.8858 11.0982 32.0121L12.5035 32.755L11.0982 33.498C10.8545 33.6243 10.7732 33.9066 10.9113 34.1221L11.6181 35.244C11.7562 35.4669 12.0649 35.5412 12.3005 35.4149L13.7058 34.6719V36.1578C13.7058 36.4104 13.9333 36.6185 14.2095 36.6185H15.6311C15.9073 36.6185 16.1347 36.4104 16.1347 36.1578V34.6719L17.5401 35.4149C17.7838 35.5412 18.0844 35.4669 18.2225 35.244L18.9292 34.1221C19.0673 33.9066 18.9861 33.6243 18.7424 33.498Z" fill="#73B2FF"/>
</g>
<mask id="mask1_46_9926" style="mask-type:alpha" maskUnits="userSpaceOnUse" x="22" y="28" width="9" height="9">
<path d="M30.538 33.498L29.1327 32.755L30.538 32.0121C30.7817 31.8858 30.863 31.6034 30.7249 31.388L30.0181 30.2661C29.88 30.0432 29.5713 29.9689 29.3358 30.0952L27.9304 30.8382V29.3522C27.9304 29.0996 27.7029 28.8916 27.4267 28.8916H26.0051C25.7289 28.8916 25.5015 29.0996 25.5015 29.3522V30.8382L24.0961 30.0952C23.8524 29.9689 23.5518 30.0432 23.4137 30.2661L22.707 31.388C22.5689 31.6109 22.6501 31.8858 22.8938 32.0121L24.2992 32.755L22.8938 33.498C22.6501 33.6243 22.5689 33.9066 22.707 34.1221L23.4137 35.244C23.5518 35.4669 23.8605 35.5412 24.0961 35.4149L25.5015 34.6719V36.1578C25.5015 36.4104 25.7289 36.6185 26.0051 36.6185H27.4267C27.7029 36.6185 27.9304 36.4104 27.9304 36.1578V34.6719L29.3358 35.4149C29.5795 35.5412 29.88 35.4669 30.0181 35.244L30.7249 34.1221C30.8548 33.9066 30.7736 33.6243 30.538 33.498Z" fill="white"/>
</mask>
<g mask="url(#mask1_46_9926)">
<path d="M30.538 33.498L29.1327 32.755L30.538 32.0121C30.7817 31.8858 30.863 31.6034 30.7249 31.388L30.0181 30.2661C29.88 30.0432 29.5713 29.9689 29.3358 30.0952L27.9304 30.8382V29.3522C27.9304 29.0996 27.7029 28.8916 27.4267 28.8916H26.0051C25.7289 28.8916 25.5015 29.0996 25.5015 29.3522V30.8382L24.0961 30.0952C23.8524 29.9689 23.5518 30.0432 23.4137 30.2661L22.707 31.388C22.5689 31.6109 22.6501 31.8858 22.8938 32.0121L24.2992 32.755L22.8938 33.498C22.6501 33.6243 22.5689 33.9066 22.707 34.1221L23.4137 35.244C23.5518 35.4669 23.8605 35.5412 24.0961 35.4149L25.5015 34.6719V36.1578C25.5015 36.4104 25.7289 36.6185 26.0051 36.6185H27.4267C27.7029 36.6185 27.9304 36.4104 27.9304 36.1578V34.6719L29.3358 35.4149C29.5795 35.5412 29.88 35.4669 30.0181 35.244L30.7249 34.1221C30.8548 33.9066 30.7736 33.6243 30.538 33.498Z" fill="#73B2FF"/>
</g>
<mask id="mask2_46_9926" style="mask-type:alpha" maskUnits="userSpaceOnUse" x="34" y="28" width="9" height="9">
<path d="M42.3251 33.498L40.9198 32.755L42.3251 32.0121C42.5688 31.8858 42.6501 31.6034 42.512 31.388L41.8052 30.2661C41.6671 30.0432 41.3584 29.9689 41.1228 30.0952L39.7175 30.8382V29.3522C39.7175 29.0996 39.49 28.8916 39.2138 28.8916H37.7922C37.516 28.8916 37.2886 29.0996 37.2886 29.3522V30.8382L35.8832 30.0952C35.6395 29.9689 35.3389 30.0432 35.2008 30.2661L34.4941 31.388C34.356 31.6109 34.4372 31.8858 34.681 32.0121L36.0863 32.755L34.681 33.498C34.4372 33.6243 34.356 33.9066 34.4941 34.1221L35.2008 35.244C35.3389 35.4669 35.6476 35.5412 35.8832 35.4149L37.2886 34.6719V36.1578C37.2886 36.4104 37.516 36.6185 37.7922 36.6185H39.2138C39.49 36.6185 39.7175 36.4104 39.7175 36.1578V34.6719L41.1228 35.4149C41.3665 35.5412 41.6671 35.4669 41.8052 35.244L42.512 34.1221C42.6419 33.9066 42.5607 33.6243 42.3251 33.498Z" fill="white"/>
</mask>
<g mask="url(#mask2_46_9926)">
<path d="M42.3251 33.498L40.9198 32.755L42.3251 32.0121C42.5688 31.8858 42.6501 31.6034 42.512 31.388L41.8052 30.2661C41.6671 30.0432 41.3584 29.9689 41.1228 30.0952L39.7175 30.8382V29.3522C39.7175 29.0996 39.49 28.8916 39.2138 28.8916H37.7922C37.516 28.8916 37.2886 29.0996 37.2886 29.3522V30.8382L35.8832 30.0952C35.6395 29.9689 35.3389 30.0432 35.2008 30.2661L34.4941 31.388C34.356 31.6109 34.4372 31.8858 34.681 32.0121L36.0863 32.755L34.681 33.498C34.4372 33.6243 34.356 33.9066 34.4941 34.1221L35.2008 35.244C35.3389 35.4669 35.6476 35.5412 35.8832 35.4149L37.2886 34.6719V36.1578C37.2886 36.4104 37.516 36.6185 37.7922 36.6185H39.2138C39.49 36.6185 39.7175 36.4104 39.7175 36.1578V34.6719L41.1228 35.4149C41.3665 35.5412 41.6671 35.4669 41.8052 35.244L42.512 34.1221C42.6419 33.9066 42.5607 33.6243 42.3251 33.498Z" fill="#73B2FF"/>
</g>
<mask id="mask3_46_9926" style="mask-type:alpha" maskUnits="userSpaceOnUse" x="46" y="28" width="9" height="9">
<path d="M54.1118 33.498L52.7064 32.755L54.1118 32.0121C54.3555 31.8858 54.4367 31.6034 54.2986 31.388L53.5918 30.2661C53.4537 30.0432 53.1451 29.9689 52.9095 30.0952L51.5041 30.8382V29.3522C51.5041 29.0996 51.2767 28.8916 51.0005 28.8916H49.5789C49.3027 28.8916 49.0752 29.0996 49.0752 29.3522V30.8382L47.6698 30.0952C47.4261 29.9689 47.1256 30.0432 46.9875 30.2661L46.2807 31.388C46.1426 31.6109 46.2239 31.8858 46.4676 32.0121L47.8729 32.755L46.4676 33.498C46.2239 33.6243 46.1426 33.9066 46.2807 34.1221L46.9875 35.244C47.1256 35.4669 47.4343 35.5412 47.6698 35.4149L49.0752 34.6719V36.1578C49.0752 36.4104 49.3027 36.6185 49.5789 36.6185H51.0005C51.2767 36.6185 51.5041 36.4104 51.5041 36.1578V34.6719L52.9095 35.4149C53.1532 35.5412 53.4537 35.4669 53.5918 35.244L54.2986 34.1221C54.4367 33.9066 54.3555 33.6243 54.1118 33.498Z" fill="white"/>
</mask>
<g mask="url(#mask3_46_9926)">
<path d="M54.1118 33.498L52.7064 32.755L54.1118 32.0121C54.3555 31.8858 54.4367 31.6034 54.2986 31.388L53.5918 30.2661C53.4537 30.0432 53.1451 29.9689 52.9095 30.0952L51.5041 30.8382V29.3522C51.5041 29.0996 51.2767 28.8916 51.0005 28.8916H49.5789C49.3027 28.8916 49.0752 29.0996 49.0752 29.3522V30.8382L47.6698 30.0952C47.4261 29.9689 47.1256 30.0432 46.9875 30.2661L46.2807 31.388C46.1426 31.6109 46.2239 31.8858 46.4676 32.0121L47.8729 32.755L46.4676 33.498C46.2239 33.6243 46.1426 33.9066 46.2807 34.1221L46.9875 35.244C47.1256 35.4669 47.4343 35.5412 47.6698 35.4149L49.0752 34.6719V36.1578C49.0752 36.4104 49.3027 36.6185 49.5789 36.6185H51.0005C51.2767 36.6185 51.5041 36.4104 51.5041 36.1578V34.6719L52.9095 35.4149C53.1532 35.5412 53.4537 35.4669 53.5918 35.244L54.2986 34.1221C54.4367 33.9066 54.3555 33.6243 54.1118 33.498Z" fill="#73B2FF"/>
</g>
</svg>
