<svg width="65" height="101" viewBox="0 0 65 101" fill="none" xmlns="http://www.w3.org/2000/svg">
<path d="M0.640697 12.9469V6.40386C0.640697 4.59407 1.34546 2.99311 2.37058 1.87939C3.45976 0.696072 4.93336 0 6.53511 0H45.6817C47.3475 0 48.8211 0.696072 49.8462 1.87939C50.9354 2.99311 51.5761 4.59407 51.5761 6.40386V94.6657C51.5761 96.4059 50.9354 98.0069 49.8462 99.1206C48.8211 100.304 47.3475 101 45.6817 101H6.53511C4.93336 101 3.45976 100.304 2.37058 99.1206C1.34546 98.0069 0.640697 96.4059 0.640697 94.6657V40.581H0V39.7457V33.2722V32.7154V32.5065V31.8801V25.4762V24.6409H0.640697V24.3625H0V23.5968V13.7822V12.9469H0.640697Z" fill="#404040" fill-opacity="0.81"/>
<path d="M6.5352 98.4245H45.6818C47.6039 98.4245 49.2056 96.6843 49.2056 94.6657V6.40381C49.2056 4.31559 47.6039 2.64502 45.6818 2.64502H6.5352C4.67718 2.64502 3.07544 4.31559 3.07544 6.40381V94.6657C3.07544 96.6843 4.67718 98.4245 6.5352 98.4245Z" fill="white"/>
<path d="M6.5352 98.4245H45.0411L49.2056 93.9V40.7897L3.07544 90.8373V94.6657C3.07544 96.6843 4.67718 98.4245 6.5352 98.4245ZM49.2056 22.4831V6.40381C49.2056 4.31559 47.6039 2.64502 45.6818 2.64502H17.6833L3.07544 18.4458V72.6002L49.2056 22.4831Z" fill="white"/>
<path d="M26.3327 92.7169C26.4608 92.7169 26.5249 92.7865 26.5889 92.7865C26.653 92.8561 26.7171 92.8561 26.7811 92.9257C26.8452 92.9953 26.9093 92.9953 26.9734 93.0649C27.0374 93.1345 27.0374 93.2041 27.1015 93.2737C27.1656 93.3433 27.1656 93.4129 27.2296 93.4826C27.2296 93.5522 27.2937 93.6218 27.2937 93.761C27.2937 93.8306 27.2937 93.9002 27.2937 93.9698C27.2937 94.0394 27.2937 94.1786 27.2937 94.2482C27.2937 94.3178 27.2296 94.3875 27.2296 94.4571C27.1656 94.5267 27.1656 94.5963 27.1015 94.6659C27.0374 94.7355 27.0374 94.8051 26.9734 94.8747C26.9093 94.9443 26.8452 95.0139 26.7811 95.0139C26.7171 95.0835 26.653 95.1531 26.5889 95.1531C26.5249 95.2227 26.4608 95.2227 26.3327 95.2227C26.2686 95.2227 26.2045 95.2227 26.1404 95.2227C26.0764 95.2227 25.9482 95.2227 25.8842 95.2227C25.8201 95.2227 25.756 95.2227 25.692 95.1531C25.6279 95.1531 25.5638 95.0835 25.4998 95.0139C25.4357 95.0139 25.3716 94.9443 25.3075 94.8747C25.2435 94.8051 25.1794 94.7355 25.1794 94.6659C25.1153 94.5963 25.0513 94.5267 25.0513 94.4571C25.0513 94.3875 24.9872 94.3178 24.9872 94.2482C24.9872 94.1786 24.9872 94.0394 24.9872 93.9698C24.9872 93.9002 24.9872 93.8306 24.9872 93.761C24.9872 93.6218 25.0513 93.5522 25.0513 93.4826C25.0513 93.4129 25.1153 93.4129 25.1153 93.3433L25.3075 93.0649C25.3716 92.9953 25.4357 92.9953 25.4998 92.9257C25.5638 92.8561 25.6279 92.8561 25.692 92.7865C25.756 92.7865 25.8201 92.7169 25.8842 92.7169C25.9482 92.7169 26.0764 92.7169 26.1404 92.7169C26.2045 92.7169 26.2686 92.7169 26.3327 92.7169ZM15.3127 92.9257H16.7222H17.0426V93.2737V94.7355V95.0835H16.7222H15.3127H15.0564V94.7355V93.2737V92.9257H15.3127ZM36.0072 93.5522L36.6479 93.1345L36.9042 92.9257L37.4167 92.5081V93.2041V93.5522V94.4571V94.8051V95.4316L36.9042 95.0835L36.6479 94.8747L36.0072 94.3875L35.879 94.2482L35.4946 93.9698L35.879 93.6914L36.0072 93.5522Z" fill="#BAC0CA"/>
<path d="M21.5913 4.73315H30.8173C30.8814 4.73315 31.0096 4.80276 31.0736 4.94198C31.1377 5.01158 31.2018 5.2204 31.2018 5.35962C31.2018 5.56844 31.1377 5.70765 31.0736 5.77726C31.0096 5.91648 30.8814 5.98608 30.8173 5.98608H21.5913C21.4632 5.98608 21.335 5.91648 21.271 5.77726C21.2069 5.70765 21.1428 5.56844 21.1428 5.35962C21.1428 5.2204 21.2069 5.01158 21.271 4.94198C21.335 4.80276 21.4632 4.73315 21.5913 4.73315Z" fill="#BAC0CA"/>
<rect x="14.8369" y="17.3359" width="50.163" height="66.4037" rx="6" fill="white"/>
<path d="M19.7384 65.6482C19.7384 64.9728 20.2705 64.4147 20.9147 64.4147H31.2218C31.866 64.4147 32.3982 64.9728 32.3982 65.6482V75.6338C32.3982 76.3093 31.866 76.8673 31.2218 76.8673H20.9147C20.2705 76.8673 19.7384 76.3093 19.7384 75.6338V65.6482ZM19.7384 45.5891C19.7384 44.9136 20.2705 44.3556 20.9147 44.3556H31.2218C31.866 44.3556 32.3982 44.9136 32.3982 45.5891V55.5746C32.3982 56.2501 31.866 56.8081 31.2218 56.8081H20.9147C20.2705 56.8081 19.7384 56.2501 19.7384 55.5746V45.5891ZM19.7384 25.5299C19.7384 24.8544 20.2705 24.2964 20.9147 24.2964H31.2218C31.866 24.2964 32.3982 24.8544 32.3982 25.5299V35.5155C32.3982 36.191 31.866 36.749 31.2218 36.749H20.9147C20.2705 36.749 19.7384 36.191 19.7384 35.5155V25.5299ZM37.1596 69.2606H57.0736C57.7738 69.2606 58.362 69.848 58.362 70.6116C58.362 71.3459 57.8018 71.9626 57.0736 71.9626H37.1596C36.4594 71.9626 35.8712 71.3752 35.8712 70.6116C35.8712 69.848 36.4594 69.2606 37.1596 69.2606ZM37.1596 49.1721H57.0736C57.7738 49.1721 58.362 49.7595 58.362 50.5231C58.362 51.2867 57.8018 51.8741 57.0736 51.8741H37.1596C36.4594 51.8741 35.8712 51.2867 35.8712 50.5231C35.8712 49.7595 36.4594 49.1721 37.1596 49.1721ZM37.1596 29.113H57.0736C57.7738 29.113 58.362 29.7004 58.362 30.464C58.362 31.1982 57.8018 31.8149 57.0736 31.8149H37.1596C36.4594 31.8149 35.8712 31.2276 35.8712 30.464C35.8712 29.7297 36.4594 29.113 37.1596 29.113ZM14.8369 21.9469V79.1287C14.8369 81.6544 16.8255 83.7396 19.2342 83.7396H60.6026C63.0114 83.7396 65 81.6544 65 79.1287V21.9469C65 19.4212 63.0114 17.3359 60.6026 17.3359H19.2062C16.7975 17.3359 14.8369 19.4212 14.8369 21.9469Z" fill="#C2C2C2"/>
<path d="M24.4999 34.2818C24.752 34.5461 25.0601 34.6929 25.4242 34.6929C25.4522 34.6929 25.4802 34.6929 25.4802 34.6929C25.8443 34.6636 26.1804 34.4873 26.4045 34.1937L30.8018 28.4373C31.25 27.8499 31.1659 27.0276 30.6058 26.5577C30.0456 26.0878 29.2614 26.1759 28.8132 26.7633L25.3122 31.3448L23.2956 29.2009C22.7914 28.6722 22.0072 28.6722 21.503 29.1715C20.9989 29.7002 20.9989 30.5225 21.475 31.0512L24.4999 34.2818Z" fill="#1B8DE4"/>
<path d="M24.4999 54.3411C24.752 54.6054 25.0601 54.7523 25.4242 54.7523C25.4522 54.7523 25.4802 54.7523 25.4802 54.7523C25.8443 54.7229 26.1804 54.5467 26.4045 54.253L30.8018 48.4966C31.2499 47.9092 31.1659 47.0869 30.6058 46.617C30.0456 46.1471 29.2614 46.2352 28.8132 46.8226L25.3122 51.4042L23.2956 49.2602C22.7914 48.7316 22.0072 48.7316 21.503 49.2309C20.9989 49.7595 20.9989 50.5818 21.475 51.1105L24.4999 54.3411Z" fill="#1B8DE4"/>
<path d="M24.4999 74.5176C24.752 74.7819 25.0601 74.9288 25.4242 74.9288C25.4522 74.9288 25.4802 74.9288 25.4802 74.9288C25.8443 74.8994 26.1804 74.7232 26.4045 74.4295L30.8018 68.6731C31.2499 68.0857 31.1659 67.2634 30.6058 66.7935C30.0456 66.3236 29.2614 66.4117 28.8132 66.9991L25.3122 71.5807L23.2956 69.4367C22.7914 68.9081 22.0072 68.9081 21.503 69.4074C20.9989 69.936 20.9989 70.7584 21.475 71.287L24.4999 74.5176Z" fill="#1B8DE4"/>
</svg>
