<svg width="67" height="68" viewBox="0 0 67 68" fill="none" xmlns="http://www.w3.org/2000/svg">
<path d="M0.606866 18.5741C0.271489 18.5741 0 18.2834 0 17.9242V6.58719C0 2.95642 2.75829 0 6.15084 0H16.7369C17.0723 0 17.3437 0.290756 17.3437 0.649924C17.3437 1.00909 17.0723 1.29985 16.7369 1.29985H6.15084C3.42904 1.29985 1.21375 3.67231 1.21375 6.58719V17.9242C1.21375 18.2858 0.942242 18.5741 0.606866 18.5741Z" fill="#1B8DE4"/>
<path d="M66.3933 18.5741C66.0579 18.5741 65.7864 18.2834 65.7864 17.9242V6.58719C65.7864 3.67231 63.5711 1.29985 60.8493 1.29985H50.2633C49.9279 1.29985 49.6564 1.00909 49.6564 0.649924C49.6564 0.290756 49.9279 0 50.2633 0H60.8493C64.2395 0 67.0001 2.95397 67.0001 6.58719V17.9242C67.0001 18.2858 66.7286 18.5741 66.3933 18.5741Z" fill="#1B8DE4"/>
<path d="M16.7369 68H6.15084C2.76057 68 0 65.046 0 61.4128V50.0758C0 49.7167 0.271489 49.4259 0.606866 49.4259C0.942242 49.4259 1.21375 49.7167 1.21375 50.0758V61.4128C1.21375 64.3277 3.42904 66.7002 6.15084 66.7002H16.7369C17.0723 66.7002 17.3437 66.9909 17.3437 67.3501C17.3415 67.7093 17.07 68 16.7369 68Z" fill="#1B8DE4"/>
<path d="M60.8493 68H50.2633C49.9279 68 49.6564 67.7093 49.6564 67.3501C49.6564 66.9909 49.9279 66.7002 50.2633 66.7002H60.8493C63.5711 66.7002 65.7864 64.3277 65.7864 61.4128V50.0758C65.7864 49.7167 66.0579 49.4259 66.3933 49.4259C66.7286 49.4259 67.0001 49.7167 67.0001 50.0758V61.4128C67.0001 65.046 64.2395 68 60.8493 68Z" fill="#1B8DE4"/>
<path opacity="0.39" d="M54.156 59H11.844C9.7217 59 8 56.8965 8 54.3035V13.6965C8 11.1035 9.7217 9 11.844 9H54.156C56.2783 9 58 11.1035 58 13.6965V54.3035C58 56.899 56.2783 59 54.156 59Z" fill="#CEE4F6"/>
<path d="M12.8735 11H11V12.8759H12.8735V11Z" fill="black"/>
<path d="M14.7472 11H12.8737V12.8759H14.7472V11Z" fill="black"/>
<path d="M16.6241 11H14.7506V12.8759H16.6241V11Z" fill="black"/>
<path d="M18.4977 11H16.6241V12.8759H18.4977V11Z" fill="black"/>
<path d="M20.3713 11H18.4978V12.8759H20.3713V11Z" fill="black"/>
<path d="M22.2483 11H20.3748V12.8759H22.2483V11Z" fill="black"/>
<path d="M24.1217 11H22.2482V12.8759H24.1217V11Z" fill="black"/>
<path d="M27.8723 11H25.9988V12.8759H27.8723V11Z" fill="black"/>
<path d="M29.7496 11H27.8761V12.8759H29.7496V11Z" fill="black"/>
<path d="M31.6231 11H29.7496V12.8759H31.6231V11Z" fill="black"/>
<path d="M35.3737 11H33.5002V12.8759H35.3737V11Z" fill="black"/>
<path d="M37.2507 11H35.3772V12.8759H37.2507V11Z" fill="black"/>
<path d="M41.0014 11H39.1279V12.8759H41.0014V11Z" fill="black"/>
<path d="M44.752 11H42.8785V12.8759H44.752V11Z" fill="black"/>
<path d="M46.6252 11H44.7517V12.8759H46.6252V11Z" fill="black"/>
<path d="M48.5025 11H46.629V12.8759H48.5025V11Z" fill="black"/>
<path d="M50.3758 11H48.5023V12.8759H50.3758V11Z" fill="black"/>
<path d="M52.2495 11H50.376V12.8759H52.2495V11Z" fill="black"/>
<path d="M54.1267 11H52.2532V12.8759H54.1267V11Z" fill="black"/>
<path d="M56 11H54.1265V12.8759H56V11Z" fill="black"/>
<path d="M12.8735 12.876H11V14.7519H12.8735V12.876Z" fill="black"/>
<path d="M24.1217 12.876H22.2482V14.7519H24.1217V12.876Z" fill="black"/>
<path d="M33.5001 12.876H31.6266V14.7519H33.5001V12.876Z" fill="black"/>
<path d="M37.2507 12.876H35.3772V14.7519H37.2507V12.876Z" fill="black"/>
<path d="M39.1242 12.876H37.2507V14.7519H39.1242V12.876Z" fill="black"/>
<path d="M44.752 12.876H42.8785V14.7519H44.752V12.876Z" fill="black"/>
<path d="M56 12.876H54.1265V14.7519H56V12.876Z" fill="black"/>
<path d="M12.8735 14.7518H11V16.6277H12.8735V14.7518Z" fill="black"/>
<path d="M16.6241 14.7518H14.7506V16.6277H16.6241V14.7518Z" fill="black"/>
<path d="M18.4977 14.7518H16.6241V16.6277H18.4977V14.7518Z" fill="black"/>
<path d="M20.3713 14.7518H18.4978V16.6277H20.3713V14.7518Z" fill="black"/>
<path d="M24.1217 14.7518H22.2482V16.6277H24.1217V14.7518Z" fill="black"/>
<path d="M27.8723 14.7518H25.9988V16.6277H27.8723V14.7518Z" fill="black"/>
<path d="M29.7496 14.7518H27.8761V16.6277H29.7496V14.7518Z" fill="black"/>
<path d="M31.6231 16.6277H29.7496V18.5036H31.6231V16.6277Z" fill="black"/>
<path d="M35.3737 14.7518H33.5002V16.6277H35.3737V14.7518Z" fill="black"/>
<path d="M44.752 14.7518H42.8785V16.6277H44.752V14.7518Z" fill="black"/>
<path d="M48.5025 14.7518H46.629V16.6277H48.5025V14.7518Z" fill="black"/>
<path d="M50.3758 14.7518H48.5023V16.6277H50.3758V14.7518Z" fill="black"/>
<path d="M52.2495 14.7518H50.376V16.6277H52.2495V14.7518Z" fill="black"/>
<path d="M56 14.7518H54.1265V16.6277H56V14.7518Z" fill="black"/>
<path d="M12.8735 16.6277H11V18.5036H12.8735V16.6277Z" fill="black"/>
<path d="M16.6241 16.6277H14.7506V18.5036H16.6241V16.6277Z" fill="black"/>
<path d="M18.4977 16.6277H16.6241V18.5036H18.4977V16.6277Z" fill="black"/>
<path d="M20.3713 16.6277H18.4978V18.5036H20.3713V16.6277Z" fill="black"/>
<path d="M24.1217 16.6277H22.2482V18.5036H24.1217V16.6277Z" fill="black"/>
<path d="M35.3737 16.6277H33.5002V18.5036H35.3737V16.6277Z" fill="black"/>
<path d="M39.1242 16.6277H37.2507V18.5036H39.1242V16.6277Z" fill="black"/>
<path d="M41.0014 16.6277H39.1279V18.5036H41.0014V16.6277Z" fill="black"/>
<path d="M44.752 16.6277H42.8785V18.5036H44.752V16.6277Z" fill="black"/>
<path d="M48.5025 16.6277H46.629V18.5036H48.5025V16.6277Z" fill="black"/>
<path d="M50.3758 16.6277H48.5023V18.5036H50.3758V16.6277Z" fill="black"/>
<path d="M52.2495 16.6277H50.376V18.5036H52.2495V16.6277Z" fill="black"/>
<path d="M56 16.6277H54.1265V18.5036H56V16.6277Z" fill="black"/>
<path d="M12.8735 18.5H11V20.3759H12.8735V18.5Z" fill="black"/>
<path d="M16.6241 18.5H14.7506V20.3759H16.6241V18.5Z" fill="black"/>
<path d="M18.4977 18.5H16.6241V20.3759H18.4977V18.5Z" fill="black"/>
<path d="M20.3713 18.5H18.4978V20.3759H20.3713V18.5Z" fill="black"/>
<path d="M24.1217 18.5H22.2482V20.3759H24.1217V18.5Z" fill="black"/>
<path d="M31.6231 18.5H29.7496V20.3759H31.6231V18.5Z" fill="black"/>
<path d="M33.5001 18.5H31.6266V20.3759H33.5001V18.5Z" fill="black"/>
<path d="M35.3737 18.5H33.5002V20.3759H35.3737V18.5Z" fill="black"/>
<path d="M37.2507 18.5H35.3772V20.3759H37.2507V18.5Z" fill="black"/>
<path d="M41.0014 18.5H39.1279V20.3759H41.0014V18.5Z" fill="black"/>
<path d="M44.752 18.5H42.8785V20.3759H44.752V18.5Z" fill="black"/>
<path d="M48.5025 18.5H46.629V20.3759H48.5025V18.5Z" fill="black"/>
<path d="M50.3758 18.5H48.5023V20.3759H50.3758V18.5Z" fill="black"/>
<path d="M52.2495 18.5H50.376V20.3759H52.2495V18.5Z" fill="black"/>
<path d="M56 18.5H54.1265V20.3759H56V18.5Z" fill="black"/>
<path d="M12.8735 20.3759H11V22.2518H12.8735V20.3759Z" fill="black"/>
<path d="M24.1217 20.3759H22.2482V22.2518H24.1217V20.3759Z" fill="black"/>
<path d="M27.8723 20.3759H25.9988V22.2518H27.8723V20.3759Z" fill="black"/>
<path d="M31.6231 20.3759H29.7496V22.2518H31.6231V20.3759Z" fill="black"/>
<path d="M33.5001 20.3759H31.6266V22.2518H33.5001V20.3759Z" fill="black"/>
<path d="M41.0014 20.3759H39.1279V22.2518H41.0014V20.3759Z" fill="black"/>
<path d="M44.752 20.3759H42.8785V22.2518H44.752V20.3759Z" fill="black"/>
<path d="M56 20.3759H54.1265V22.2518H56V20.3759Z" fill="black"/>
<path d="M12.8735 22.2517H11V24.1276H12.8735V22.2517Z" fill="black"/>
<path d="M14.7472 22.2517H12.8737V24.1276H14.7472V22.2517Z" fill="black"/>
<path d="M16.6241 22.2517H14.7506V24.1276H16.6241V22.2517Z" fill="black"/>
<path d="M18.4977 22.2517H16.6241V24.1276H18.4977V22.2517Z" fill="black"/>
<path d="M20.3713 22.2517H18.4978V24.1276H20.3713V22.2517Z" fill="black"/>
<path d="M22.2483 22.2517H20.3748V24.1276H22.2483V22.2517Z" fill="black"/>
<path d="M24.1217 22.2517H22.2482V24.1276H24.1217V22.2517Z" fill="black"/>
<path d="M27.8723 22.2517H25.9988V24.1276H27.8723V22.2517Z" fill="black"/>
<path d="M27.8723 24.1244H25.9988V26.0003H27.8723V24.1244Z" fill="black"/>
<path d="M31.6231 22.2517H29.7496V24.1276H31.6231V22.2517Z" fill="black"/>
<path d="M37.2507 22.2517H35.3772V24.1276H37.2507V22.2517Z" fill="black"/>
<path d="M39.1242 22.2517H37.2507V24.1276H39.1242V22.2517Z" fill="black"/>
<path d="M41.0014 22.2517H39.1279V24.1276H41.0014V22.2517Z" fill="black"/>
<path d="M44.752 22.2517H42.8785V24.1276H44.752V22.2517Z" fill="black"/>
<path d="M46.6252 22.2517H44.7517V24.1276H46.6252V22.2517Z" fill="black"/>
<path d="M48.5025 22.2517H46.629V24.1276H48.5025V22.2517Z" fill="black"/>
<path d="M50.3758 22.2517H48.5023V24.1276H50.3758V22.2517Z" fill="black"/>
<path d="M52.2495 22.2517H50.376V24.1276H52.2495V22.2517Z" fill="black"/>
<path d="M54.1267 22.2517H52.2532V24.1276H54.1267V22.2517Z" fill="black"/>
<path d="M56 22.2517H54.1265V24.1276H56V22.2517Z" fill="black"/>
<path d="M29.7496 24.1244H27.8761V26.0003H29.7496V24.1244Z" fill="black"/>
<path d="M29.7496 18.5H27.8761V20.3759H29.7496V18.5Z" fill="black"/>
<path d="M33.5001 24.1244H31.6266V26.0003H33.5001V24.1244Z" fill="black"/>
<path d="M37.2507 24.1244H35.3772V26.0003H37.2507V24.1244Z" fill="black"/>
<path d="M41.0014 24.1244H39.1279V26.0003H41.0014V24.1244Z" fill="black"/>
<path d="M12.8735 26H11V27.8759H12.8735V26Z" fill="black"/>
<path d="M14.7472 27.8759H12.8737V29.7518H14.7472V27.8759Z" fill="black"/>
<path d="M16.6241 26H14.7506V27.8759H16.6241V26Z" fill="black"/>
<path d="M18.4977 26H16.6241V27.8759H18.4977V26Z" fill="black"/>
<path d="M24.1217 26H22.2482V27.8759H24.1217V26Z" fill="black"/>
<path d="M25.9986 26H24.1251V27.8759H25.9986V26Z" fill="black"/>
<path d="M31.6231 26H29.7496V27.8759H31.6231V26Z" fill="black"/>
<path d="M35.3737 26H33.5002V27.8759H35.3737V26Z" fill="black"/>
<path d="M37.2507 26H35.3772V27.8759H37.2507V26Z" fill="black"/>
<path d="M39.1242 26H37.2507V27.8759H39.1242V26Z" fill="black"/>
<path d="M41.0014 26H39.1279V27.8759H41.0014V26Z" fill="black"/>
<path d="M46.6252 26H44.7517V27.8759H46.6252V26Z" fill="black"/>
<path d="M42.8749 26H41.0013V27.8759H42.8749V26Z" fill="black"/>
<path d="M52.2495 26H50.376V27.8759H52.2495V26Z" fill="black"/>
<path d="M50.3758 26H48.5023V27.8759H50.3758V26Z" fill="black"/>
<path d="M48.5025 26H46.629V27.8759H48.5025V26Z" fill="black"/>
<path d="M56 26H54.1265V27.8759H56V26Z" fill="black"/>
<path d="M27.8723 27.8759H25.9988V29.7518H27.8723V27.8759Z" fill="black"/>
<path d="M25.9986 27.8759H24.1251V29.7518H25.9986V27.8759Z" fill="black"/>
<path d="M31.6231 27.8759H29.7496V29.7518H31.6231V27.8759Z" fill="black"/>
<path d="M33.5001 27.8759H31.6266V29.7518H33.5001V27.8759Z" fill="black"/>
<path d="M20.3713 27.8759H18.4978V29.7518H20.3713V27.8759Z" fill="black"/>
<path d="M18.4977 27.8759H16.6241V29.7518H18.4977V27.8759Z" fill="black"/>
<path d="M22.2483 27.8759H20.3748V29.7518H22.2483V27.8759Z" fill="black"/>
<path d="M39.1242 27.8759H37.2507V29.7518H39.1242V27.8759Z" fill="black"/>
<path d="M42.8749 27.8759H41.0013V29.7518H42.8749V27.8759Z" fill="black"/>
<path d="M44.752 27.8759H42.8785V29.7518H44.752V27.8759Z" fill="black"/>
<path d="M46.6252 27.8759H44.7517V29.7518H46.6252V27.8759Z" fill="black"/>
<path d="M50.3758 27.8759H48.5023V29.7518H50.3758V27.8759Z" fill="black"/>
<path d="M54.1267 27.8759H52.2532V29.7518H54.1267V27.8759Z" fill="black"/>
<path d="M56 27.8759H54.1265V29.7518H56V27.8759Z" fill="black"/>
<path d="M12.8735 29.7517H11V31.6276H12.8735V29.7517Z" fill="black"/>
<path d="M16.6241 29.7517H14.7506V31.6276H16.6241V29.7517Z" fill="black"/>
<path d="M22.2483 29.7517H20.3748V31.6276H22.2483V29.7517Z" fill="black"/>
<path d="M22.2483 31.6239H20.3748V33.4998H22.2483V31.6239Z" fill="black"/>
<path d="M24.1217 29.7517H22.2482V31.6276H24.1217V29.7517Z" fill="black"/>
<path d="M25.9986 29.7517H24.1251V31.6276H25.9986V29.7517Z" fill="black"/>
<path d="M29.7496 29.7517H27.8761V31.6276H29.7496V29.7517Z" fill="black"/>
<path d="M29.7496 31.6239H27.8761V33.4998H29.7496V31.6239Z" fill="black"/>
<path d="M35.3737 29.7517H33.5002V31.6276H35.3737V29.7517Z" fill="black"/>
<path d="M39.1242 29.7517H37.2507V31.6276H39.1242V29.7517Z" fill="black"/>
<path d="M42.8749 29.7517H41.0013V31.6276H42.8749V29.7517Z" fill="black"/>
<path d="M44.752 29.7517H42.8785V31.6276H44.752V29.7517Z" fill="black"/>
<path d="M50.3758 29.7517H48.5023V31.6276H50.3758V29.7517Z" fill="black"/>
<path d="M52.2495 29.7517H50.376V31.6276H52.2495V29.7517Z" fill="black"/>
<path d="M56 29.7517H54.1265V31.6276H56V29.7517Z" fill="black"/>
<path d="M14.7472 31.6239H12.8737V33.4998H14.7472V31.6239Z" fill="black"/>
<path d="M14.7472 33.5001H12.8737V35.376H14.7472V33.5001Z" fill="black"/>
<path d="M14.7472 35.3757H12.8737V37.2516H14.7472V35.3757Z" fill="black"/>
<path d="M16.6241 35.3757H14.7506V37.2516H16.6241V35.3757Z" fill="black"/>
<path d="M18.4977 31.6239H16.6241V33.4998H18.4977V31.6239Z" fill="black"/>
<path d="M25.9986 31.6239H24.1251V33.4998H25.9986V31.6239Z" fill="black"/>
<path d="M31.6231 31.6239H29.7496V33.4998H31.6231V31.6239Z" fill="black"/>
<path d="M33.5001 31.6239H31.6266V33.4998H33.5001V31.6239Z" fill="black"/>
<path d="M37.2507 31.6239H35.3772V33.4998H37.2507V31.6239Z" fill="black"/>
<path d="M39.1242 31.6239H37.2507V33.4998H39.1242V31.6239Z" fill="black"/>
<path d="M44.752 31.6239H42.8785V33.4998H44.752V31.6239Z" fill="black"/>
<path d="M46.6252 31.6239H44.7517V33.4998H46.6252V31.6239Z" fill="black"/>
<path d="M48.5025 31.6239H46.629V33.4998H48.5025V31.6239Z" fill="black"/>
<path d="M50.3758 31.6239H48.5023V33.4998H50.3758V31.6239Z" fill="black"/>
<path d="M56 31.6239H54.1265V33.4998H56V31.6239Z" fill="black"/>
<path d="M12.8735 33.5001H11V35.376H12.8735V33.5001Z" fill="black"/>
<path d="M12.8735 31.6239H11V33.4998H12.8735V31.6239Z" fill="black"/>
<path d="M12.8735 39.1243H11V41.0002H12.8735V39.1243Z" fill="black"/>
<path d="M18.4977 33.5001H16.6241V35.376H18.4977V33.5001Z" fill="black"/>
<path d="M20.3713 33.5001H18.4978V35.376H20.3713V33.5001Z" fill="black"/>
<path d="M22.2483 33.5001H20.3748V35.376H22.2483V33.5001Z" fill="black"/>
<path d="M25.9986 33.5001H24.1251V35.376H25.9986V33.5001Z" fill="black"/>
<path d="M31.6231 33.5001H29.7496V35.376H31.6231V33.5001Z" fill="black"/>
<path d="M33.5001 33.5001H31.6266V35.376H33.5001V33.5001Z" fill="black"/>
<path d="M33.5001 37.2484H31.6266V39.1243H33.5001V37.2484Z" fill="black"/>
<path d="M35.3737 33.5001H33.5002V35.376H35.3737V33.5001Z" fill="black"/>
<path d="M35.3737 39.1243H33.5002V41.0002H35.3737V39.1243Z" fill="black"/>
<path d="M37.2507 39.1243H35.3772V41.0002H37.2507V39.1243Z" fill="black"/>
<path d="M39.1242 33.5001H37.2507V35.376H39.1242V33.5001Z" fill="black"/>
<path d="M42.8749 33.5001H41.0013V35.376H42.8749V33.5001Z" fill="black"/>
<path d="M44.752 33.5001H42.8785V35.376H44.752V33.5001Z" fill="black"/>
<path d="M50.3758 33.5001H48.5023V35.376H50.3758V33.5001Z" fill="black"/>
<path d="M54.1267 33.5001H52.2532V35.376H54.1267V33.5001Z" fill="black"/>
<path d="M56 33.5001H54.1265V35.376H56V33.5001Z" fill="black"/>
<path d="M18.4977 35.3757H16.6241V37.2516H18.4977V35.3757Z" fill="black"/>
<path d="M24.1217 35.3757H22.2482V37.2516H24.1217V35.3757Z" fill="black"/>
<path d="M25.9986 37.2516H24.1251V39.1275H25.9986V37.2516Z" fill="black"/>
<path d="M27.8723 35.3757H25.9988V37.2516H27.8723V35.3757Z" fill="black"/>
<path d="M29.7496 35.3757H27.8761V37.2516H29.7496V35.3757Z" fill="black"/>
<path d="M31.6231 35.3757H29.7496V37.2516H31.6231V35.3757Z" fill="black"/>
<path d="M39.1242 35.3757H37.2507V37.2516H39.1242V35.3757Z" fill="black"/>
<path d="M37.2507 35.3757H35.3772V37.2516H37.2507V35.3757Z" fill="black"/>
<path d="M41.0014 35.3757H39.1279V37.2516H41.0014V35.3757Z" fill="black"/>
<path d="M41.0014 33.5001H39.1279V35.376H41.0014V33.5001Z" fill="black"/>
<path d="M44.752 35.3757H42.8785V37.2516H44.752V35.3757Z" fill="black"/>
<path d="M46.6252 35.3757H44.7517V37.2516H46.6252V35.3757Z" fill="black"/>
<path d="M50.3758 35.3757H48.5023V37.2516H50.3758V35.3757Z" fill="black"/>
<path d="M52.2495 35.3757H50.376V37.2516H52.2495V35.3757Z" fill="black"/>
<path d="M56 35.3757H54.1265V37.2516H56V35.3757Z" fill="black"/>
<path d="M12.8735 37.2484H11V39.1243H12.8735V37.2484Z" fill="black"/>
<path d="M14.7472 37.2484H12.8737V39.1243H14.7472V37.2484Z" fill="black"/>
<path d="M22.2483 37.2484H20.3748V39.1243H22.2483V37.2484Z" fill="black"/>
<path d="M24.1217 37.2484H22.2482V39.1243H24.1217V37.2484Z" fill="black"/>
<path d="M37.2507 37.2484H35.3772V39.1243H37.2507V37.2484Z" fill="black"/>
<path d="M50.3758 37.2484H48.5023V39.1243H50.3758V37.2484Z" fill="black"/>
<path d="M54.1267 37.2484H52.2532V39.1243H54.1267V37.2484Z" fill="black"/>
<path d="M16.6241 39.1243H14.7506V41.0002H16.6241V39.1243Z" fill="black"/>
<path d="M18.4977 39.1243H16.6241V41.0002H18.4977V39.1243Z" fill="black"/>
<path d="M20.3713 37.2516H18.4978V39.1275H20.3713V37.2516Z" fill="black"/>
<path d="M22.2483 39.1243H20.3748V41.0002H22.2483V39.1243Z" fill="black"/>
<path d="M24.1217 39.1243H22.2482V41.0002H24.1217V39.1243Z" fill="black"/>
<path d="M27.8723 39.1243H25.9988V41.0002H27.8723V39.1243Z" fill="black"/>
<path d="M29.7496 39.1243H27.8761V41.0002H29.7496V39.1243Z" fill="black"/>
<path d="M31.6231 39.1243H29.7496V41.0002H31.6231V39.1243Z" fill="black"/>
<path d="M39.1242 39.1243H37.2507V41.0002H39.1242V39.1243Z" fill="black"/>
<path d="M41.0014 39.1243H39.1279V41.0002H41.0014V39.1243Z" fill="black"/>
<path d="M42.8749 39.1243H41.0013V41.0002H42.8749V39.1243Z" fill="black"/>
<path d="M44.752 39.1243H42.8785V41.0002H44.752V39.1243Z" fill="black"/>
<path d="M46.6252 39.1243H44.7517V41.0002H46.6252V39.1243Z" fill="black"/>
<path d="M48.5025 39.1243H46.629V41.0002H48.5025V39.1243Z" fill="black"/>
<path d="M50.3758 39.1243H48.5023V41.0002H50.3758V39.1243Z" fill="black"/>
<path d="M54.1267 39.1243H52.2532V41.0002H54.1267V39.1243Z" fill="black"/>
<path d="M27.8723 40.9999H25.9988V42.8758H27.8723V40.9999Z" fill="black"/>
<path d="M33.5001 40.9999H31.6266V42.8758H33.5001V40.9999Z" fill="black"/>
<path d="M35.3737 40.9999H33.5002V42.8758H35.3737V40.9999Z" fill="black"/>
<path d="M41.0014 40.9999H39.1279V42.8758H41.0014V40.9999Z" fill="black"/>
<path d="M48.5025 40.9999H46.629V42.8758H48.5025V40.9999Z" fill="black"/>
<path d="M56 40.9999H54.1265V42.8758H56V40.9999Z" fill="black"/>
<path d="M12.8735 42.876H11V44.7519H12.8735V42.876Z" fill="black"/>
<path d="M14.7472 42.876H12.8737V44.7519H14.7472V42.876Z" fill="black"/>
<path d="M16.6241 42.876H14.7506V44.7519H16.6241V42.876Z" fill="black"/>
<path d="M18.4977 42.876H16.6241V44.7519H18.4977V42.876Z" fill="black"/>
<path d="M20.3713 42.876H18.4978V44.7519H20.3713V42.876Z" fill="black"/>
<path d="M22.2483 42.876H20.3748V44.7519H22.2483V42.876Z" fill="black"/>
<path d="M24.1217 42.876H22.2482V44.7519H24.1217V42.876Z" fill="black"/>
<path d="M27.8723 42.876H25.9988V44.7519H27.8723V42.876Z" fill="black"/>
<path d="M27.8723 44.7483H25.9988V46.6242H27.8723V44.7483Z" fill="black"/>
<path d="M27.8723 48.5001H25.9988V50.376H27.8723V48.5001Z" fill="black"/>
<path d="M29.7496 42.876H27.8761V44.7519H29.7496V42.876Z" fill="black"/>
<path d="M31.6231 42.876H29.7496V44.7519H31.6231V42.876Z" fill="black"/>
<path d="M41.0014 42.876H39.1279V44.7519H41.0014V42.876Z" fill="black"/>
<path d="M44.752 42.876H42.8785V44.7519H44.752V42.876Z" fill="black"/>
<path d="M48.5025 42.876H46.629V44.7519H48.5025V42.876Z" fill="black"/>
<path d="M50.3758 42.876H48.5023V44.7519H50.3758V42.876Z" fill="black"/>
<path d="M52.2495 42.876H50.376V44.7519H52.2495V42.876Z" fill="black"/>
<path d="M56 42.876H54.1265V44.7519H56V42.876Z" fill="black"/>
<path d="M12.8735 44.7483H11V46.6242H12.8735V44.7483Z" fill="black"/>
<path d="M24.1217 44.7483H22.2482V46.6242H24.1217V44.7483Z" fill="black"/>
<path d="M37.2507 44.7483H35.3772V46.6242H37.2507V44.7483Z" fill="black"/>
<path d="M39.1242 44.7483H37.2507V46.6242H39.1242V44.7483Z" fill="black"/>
<path d="M41.0014 44.7483H39.1279V46.6242H41.0014V44.7483Z" fill="black"/>
<path d="M39.1242 46.6243H37.2507V48.5002H39.1242V46.6243Z" fill="black"/>
<path d="M48.5025 44.7483H46.629V46.6242H48.5025V44.7483Z" fill="black"/>
<path d="M56 44.7483H54.1265V46.6242H56V44.7483Z" fill="black"/>
<path d="M12.8735 46.6243H11V48.5002H12.8735V46.6243Z" fill="black"/>
<path d="M16.6241 46.6243H14.7506V48.5002H16.6241V46.6243Z" fill="black"/>
<path d="M18.4977 46.6243H16.6241V48.5002H18.4977V46.6243Z" fill="black"/>
<path d="M20.3713 46.6243H18.4978V48.5002H20.3713V46.6243Z" fill="black"/>
<path d="M24.1217 46.6243H22.2482V48.5002H24.1217V46.6243Z" fill="black"/>
<path d="M29.7496 46.6243H27.8761V48.5002H29.7496V46.6243Z" fill="black"/>
<path d="M29.7496 50.3723H27.8761V52.2482H29.7496V50.3723Z" fill="black"/>
<path d="M35.3737 46.6243H33.5002V48.5002H35.3737V46.6243Z" fill="black"/>
<path d="M35.3737 48.4965H33.5002V50.3724H35.3737V48.4965Z" fill="black"/>
<path d="M35.3737 44.7483H33.5002V46.6242H35.3737V44.7483Z" fill="black"/>
<path d="M35.3737 42.876H33.5002V44.7519H35.3737V42.876Z" fill="black"/>
<path d="M33.5001 46.6243H31.6266V48.5002H33.5001V46.6243Z" fill="black"/>
<path d="M39.1242 40.9999H37.2507V42.8758H39.1242V40.9999Z" fill="black"/>
<path d="M42.8749 46.6243H41.0013V48.5002H42.8749V46.6243Z" fill="black"/>
<path d="M44.752 46.6243H42.8785V48.5002H44.752V46.6243Z" fill="black"/>
<path d="M46.6252 46.6243H44.7517V48.5002H46.6252V46.6243Z" fill="black"/>
<path d="M48.5025 46.6243H46.629V48.5002H48.5025V46.6243Z" fill="black"/>
<path d="M54.1267 46.6243H52.2532V48.5002H54.1267V46.6243Z" fill="black"/>
<path d="M52.2532 44.7483H50.3796V46.6242H52.2532V44.7483Z" fill="black"/>
<path d="M56 46.6243H54.1265V48.5002H56V46.6243Z" fill="black"/>
<path d="M12.8735 48.5001H11V50.376H12.8735V48.5001Z" fill="black"/>
<path d="M16.6241 48.5001H14.7506V50.376H16.6241V48.5001Z" fill="black"/>
<path d="M18.4977 48.5001H16.6241V50.376H18.4977V48.5001Z" fill="black"/>
<path d="M20.3713 48.5001H18.4978V50.376H20.3713V48.5001Z" fill="black"/>
<path d="M24.1217 48.5001H22.2482V50.376H24.1217V48.5001Z" fill="black"/>
<path d="M31.6231 48.5001H29.7496V50.376H31.6231V48.5001Z" fill="black"/>
<path d="M39.1242 48.5001H37.2507V50.376H39.1242V48.5001Z" fill="black"/>
<path d="M41.0014 48.5001H39.1279V50.376H41.0014V48.5001Z" fill="black"/>
<path d="M41.0014 52.2482H39.1279V54.1241H41.0014V52.2482Z" fill="black"/>
<path d="M42.8749 48.5001H41.0013V50.376H42.8749V48.5001Z" fill="black"/>
<path d="M48.5025 48.5001H46.629V50.376H48.5025V48.5001Z" fill="black"/>
<path d="M50.3758 48.5001H48.5023V50.376H50.3758V48.5001Z" fill="black"/>
<path d="M52.2495 48.5001H50.376V50.376H52.2495V48.5001Z" fill="black"/>
<path d="M54.1267 48.5001H52.2532V50.376H54.1267V48.5001Z" fill="black"/>
<path d="M56 48.5001H54.1265V50.376H56V48.5001Z" fill="black"/>
<path d="M12.8735 50.3723H11V52.2482H12.8735V50.3723Z" fill="black"/>
<path d="M16.6241 50.3723H14.7506V52.2482H16.6241V50.3723Z" fill="black"/>
<path d="M18.4977 50.3723H16.6241V52.2482H18.4977V50.3723Z" fill="black"/>
<path d="M20.3713 50.3723H18.4978V52.2482H20.3713V50.3723Z" fill="black"/>
<path d="M24.1217 50.3723H22.2482V52.2482H24.1217V50.3723Z" fill="black"/>
<path d="M27.8723 50.3723H25.9988V52.2482H27.8723V50.3723Z" fill="black"/>
<path d="M33.5001 50.3723H31.6266V52.2482H33.5001V50.3723Z" fill="black"/>
<path d="M37.2507 50.3723H35.3772V52.2482H37.2507V50.3723Z" fill="black"/>
<path d="M42.8749 50.3723H41.0013V52.2482H42.8749V50.3723Z" fill="black"/>
<path d="M46.6252 50.3723H44.7517V52.2482H46.6252V50.3723Z" fill="black"/>
<path d="M48.5025 50.3723H46.629V52.2482H48.5025V50.3723Z" fill="black"/>
<path d="M54.1267 50.3723H52.2532V52.2482H54.1267V50.3723Z" fill="black"/>
<path d="M56 50.3723H54.1265V52.2482H56V50.3723Z" fill="black"/>
<path d="M12.8735 52.2482H11V54.1241H12.8735V52.2482Z" fill="black"/>
<path d="M24.1217 52.2482H22.2482V54.1241H24.1217V52.2482Z" fill="black"/>
<path d="M29.7496 52.2482H27.8761V54.1241H29.7496V52.2482Z" fill="black"/>
<path d="M33.5001 52.2482H31.6266V54.1241H33.5001V52.2482Z" fill="black"/>
<path d="M35.3737 52.2482H33.5002V54.1241H35.3737V52.2482Z" fill="black"/>
<path d="M42.8749 52.2482H41.0013V54.1241H42.8749V52.2482Z" fill="black"/>
<path d="M48.5025 52.2482H46.629V54.1241H48.5025V52.2482Z" fill="black"/>
<path d="M50.3758 52.2482H48.5023V54.1241H50.3758V52.2482Z" fill="black"/>
<path d="M54.1267 52.2482H52.2532V54.1241H54.1267V52.2482Z" fill="black"/>
<path d="M12.8735 54.124H11V55.9999H12.8735V54.124Z" fill="black"/>
<path d="M14.7472 54.124H12.8737V55.9999H14.7472V54.124Z" fill="black"/>
<path d="M16.6241 54.124H14.7506V55.9999H16.6241V54.124Z" fill="black"/>
<path d="M18.4977 54.124H16.6241V55.9999H18.4977V54.124Z" fill="black"/>
<path d="M20.3713 54.124H18.4978V55.9999H20.3713V54.124Z" fill="black"/>
<path d="M22.2483 54.124H20.3748V55.9999H22.2483V54.124Z" fill="black"/>
<path d="M24.1217 54.124H22.2482V55.9999H24.1217V54.124Z" fill="black"/>
<path d="M27.8723 54.124H25.9988V55.9999H27.8723V54.124Z" fill="black"/>
<path d="M29.7496 54.124H27.8761V55.9999H29.7496V54.124Z" fill="black"/>
<path d="M31.6231 54.124H29.7496V55.9999H31.6231V54.124Z" fill="black"/>
<path d="M39.1242 54.124H37.2507V55.9999H39.1242V54.124Z" fill="black"/>
<path d="M37.2507 54.124H35.3772V55.9999H37.2507V54.124Z" fill="black"/>
<path d="M41.0014 54.124H39.1279V55.9999H41.0014V54.124Z" fill="black"/>
<path d="M42.8749 54.124H41.0013V55.9999H42.8749V54.124Z" fill="black"/>
<path d="M46.6252 54.124H44.7517V55.9999H46.6252V54.124Z" fill="black"/>
<path d="M56 54.124H54.1265V55.9999H56V54.124Z" fill="black"/>
<path d="M52.2532 54.124H50.3796V55.9999H52.2532V54.124Z" fill="black"/>
<path d="M50.3758 54.124H48.5023V55.9999H50.3758V54.124Z" fill="black"/>
</svg>
