<svg width="100" height="82" viewBox="0 0 100 82" fill="none" xmlns="http://www.w3.org/2000/svg">
<g filter="url(#filter0_d_89_1307)">
<path d="M60.0265 0H92.6647C94.4912 0 96 2.01644 96 4.35126V44.2555V44.3616V44.4677C96 44.5738 95.9206 44.5738 95.9206 44.68V44.7861V44.8922V44.9984V45.1045V45.2106L95.8412 45.3167V45.4229V45.529L95.7618 45.6351V45.7413V45.8474H95.6824V45.9535V46.0596L95.6029 46.1658C95.6029 46.2719 95.6029 46.2719 95.5235 46.378C95.5235 46.4842 95.4441 46.4841 95.4441 46.5903C95.3647 46.6964 95.3647 46.6964 95.3647 46.8025L95.2853 46.9087L95.2059 47.0148C94.65 47.9699 93.6971 48.6067 92.6647 48.6067H84.2471V56.5663C84.2471 57.4154 83.85 57.8399 83.2941 57.5215L80.9912 55.9296L70.1912 48.6067H59.55C45.8118 48.6067 32.0735 48.6067 18.3353 48.6067C16.5088 48.6067 15 46.5903 15 44.2555V4.35126C15 2.01644 16.5088 0 18.3353 0C32.2323 0 46.1294 0 60.0265 0Z" fill="#CEE4F6"/>
<g filter="url(#filter1_d_89_1307)">
<path d="M49.0265 16H81.6647C83.4912 16 85 18.0164 85 20.3513V60.2555V60.3616V60.4677C85 60.5738 84.9206 60.5738 84.9206 60.68V60.7861V60.8922V60.9984V61.1045V61.2106L84.8412 61.3167V61.4229V61.529L84.7618 61.6351V61.7413V61.8474H84.6824V61.9535V62.0596L84.6029 62.1658C84.6029 62.2719 84.6029 62.2719 84.5235 62.378C84.5235 62.4842 84.4441 62.4842 84.4441 62.5903C84.3647 62.6964 84.3647 62.6964 84.3647 62.8025L84.2853 62.9087L84.2059 63.0148C83.65 63.9699 82.6971 64.6067 81.6647 64.6067H73.2471V72.5663C73.2471 73.4154 72.85 73.8399 72.2941 73.5215L69.9912 71.9296L59.1912 64.6067H48.55C34.8118 64.6067 21.0735 64.6067 7.33529 64.6067C5.50882 64.6067 4 62.5903 4 60.2555V20.3513C4 18.0164 5.50882 16 7.33529 16C21.2323 16 35.1294 16 49.0265 16Z" fill="#1B8DE4"/>
<path d="M49.0265 16H81.6647C83.4912 16 85 18.0164 85 20.3513V60.2555V60.3616V60.4677C85 60.5738 84.9206 60.5738 84.9206 60.68V60.7861V60.8922V60.9984V61.1045V61.2106L84.8412 61.3167V61.4229V61.529L84.7618 61.6351V61.7413V61.8474H84.6824V61.9535V62.0596L84.6029 62.1658C84.6029 62.2719 84.6029 62.2719 84.5235 62.378C84.5235 62.4842 84.4441 62.4842 84.4441 62.5903C84.3647 62.6964 84.3647 62.6964 84.3647 62.8025L84.2853 62.9087L84.2059 63.0148C83.65 63.9699 82.6971 64.6067 81.6647 64.6067H73.2471V67.2599L34.8912 16H49.0265ZM50.1382 64.6067H48.55C34.8118 64.6067 21.0735 64.6067 7.33529 64.6067C5.50882 64.6067 4 62.5903 4 60.2555V20.3513C4 18.0164 5.50882 16 7.33529 16H13.5294L50.1382 64.6067Z" fill="#1B8DE4"/>
</g>
<g filter="url(#filter2_d_89_1307)">
<mask id="mask0_89_1307" style="mask-type:alpha" maskUnits="userSpaceOnUse" x="15" y="35" width="12" height="11">
<path d="M25.8072 41.51L23.8842 40.46L25.8072 39.41C26.1407 39.2315 26.2519 38.8325 26.0629 38.528L25.0958 36.9425C24.9069 36.6275 24.4845 36.5225 24.1621 36.701L22.2391 37.751V35.651C22.2391 35.294 21.9279 35 21.55 35H19.6047C19.2268 35 18.9156 35.294 18.9156 35.651V37.751L16.9926 36.701C16.6591 36.5225 16.2478 36.6275 16.0589 36.9425L15.0918 38.528C14.9029 38.843 15.014 39.2315 15.3475 39.41L17.2705 40.46L15.3475 41.51C15.014 41.6885 14.9029 42.0875 15.0918 42.392L16.0589 43.9775C16.2478 44.2925 16.6702 44.3975 16.9926 44.219L18.9156 43.169V45.269C18.9156 45.626 19.2268 45.92 19.6047 45.92H21.55C21.9279 45.92 22.2391 45.626 22.2391 45.269V43.169L24.1621 44.219C24.4956 44.3975 24.9069 44.2925 25.0958 43.9775L26.0629 42.392C26.2519 42.0875 26.1407 41.6885 25.8072 41.51Z" fill="white"/>
</mask>
<g mask="url(#mask0_89_1307)">
<path d="M25.8072 41.51L23.8842 40.46L25.8072 39.41C26.1407 39.2315 26.2519 38.8325 26.0629 38.528L25.0958 36.9425C24.9069 36.6275 24.4845 36.5225 24.1621 36.701L22.2391 37.751V35.651C22.2391 35.294 21.9279 35 21.55 35H19.6047C19.2268 35 18.9156 35.294 18.9156 35.651V37.751L16.9926 36.701C16.6591 36.5225 16.2478 36.6275 16.0589 36.9425L15.0918 38.528C14.9029 38.843 15.014 39.2315 15.3475 39.41L17.2705 40.46L15.3475 41.51C15.014 41.6885 14.9029 42.0875 15.0918 42.392L16.0589 43.9775C16.2478 44.2925 16.6702 44.3975 16.9926 44.219L18.9156 43.169V45.269C18.9156 45.626 19.2268 45.92 19.6047 45.92H21.55C21.9279 45.92 22.2391 45.626 22.2391 45.269V43.169L24.1621 44.219C24.4956 44.3975 24.9069 44.2925 25.0958 43.9775L26.0629 42.392C26.2519 42.0875 26.1407 41.6885 25.8072 41.51Z" fill="white"/>
</g>
<mask id="mask1_89_1307" style="mask-type:alpha" maskUnits="userSpaceOnUse" x="31" y="35" width="12" height="11">
<path d="M41.947 41.51L40.024 40.46L41.947 39.41C42.2805 39.2315 42.3916 38.8325 42.2027 38.528L41.2356 36.9425C41.0466 36.6275 40.6243 36.5225 40.3019 36.701L38.3789 37.751V35.651C38.3789 35.294 38.0677 35 37.6898 35H35.7445C35.3666 35 35.0554 35.294 35.0554 35.651V37.751L33.1324 36.701C32.7989 36.5225 32.3876 36.6275 32.1987 36.9425L31.2316 38.528C31.0426 38.843 31.1538 39.2315 31.4873 39.41L33.4103 40.46L31.4873 41.51C31.1538 41.6885 31.0426 42.0875 31.2316 42.392L32.1987 43.9775C32.3876 44.2925 32.81 44.3975 33.1324 44.219L35.0554 43.169V45.269C35.0554 45.626 35.3666 45.92 35.7445 45.92H37.6898C38.0677 45.92 38.3789 45.626 38.3789 45.269V43.169L40.3019 44.219C40.6354 44.3975 41.0466 44.2925 41.2356 43.9775L42.2027 42.392C42.3805 42.0875 42.2694 41.6885 41.947 41.51Z" fill="white"/>
</mask>
<g mask="url(#mask1_89_1307)">
<path d="M41.947 41.51L40.024 40.46L41.947 39.41C42.2805 39.2315 42.3916 38.8325 42.2027 38.528L41.2356 36.9425C41.0466 36.6275 40.6243 36.5225 40.3019 36.701L38.3789 37.751V35.651C38.3789 35.294 38.0677 35 37.6898 35H35.7445C35.3666 35 35.0554 35.294 35.0554 35.651V37.751L33.1324 36.701C32.7989 36.5225 32.3876 36.6275 32.1987 36.9425L31.2316 38.528C31.0426 38.843 31.1538 39.2315 31.4873 39.41L33.4103 40.46L31.4873 41.51C31.1538 41.6885 31.0426 42.0875 31.2316 42.392L32.1987 43.9775C32.3876 44.2925 32.81 44.3975 33.1324 44.219L35.0554 43.169V45.269C35.0554 45.626 35.3666 45.92 35.7445 45.92H37.6898C38.0677 45.92 38.3789 45.626 38.3789 45.269V43.169L40.3019 44.219C40.6354 44.3975 41.0466 44.2925 41.2356 43.9775L42.2027 42.392C42.3805 42.0875 42.2694 41.6885 41.947 41.51Z" fill="white"/>
</g>
<mask id="mask2_89_1307" style="mask-type:alpha" maskUnits="userSpaceOnUse" x="47" y="35" width="12" height="11">
<path d="M58.0758 41.51L56.1528 40.46L58.0758 39.41C58.4092 39.2315 58.5204 38.8325 58.3314 38.528L57.3644 36.9425C57.1754 36.6275 56.753 36.5225 56.4307 36.701L54.5077 37.751V35.651C54.5077 35.294 54.1964 35 53.8185 35H51.8733C51.4954 35 51.1841 35.294 51.1841 35.651V37.751L49.2611 36.701C48.9277 36.5225 48.5164 36.6275 48.3274 36.9425L47.3604 38.528C47.1714 38.843 47.2826 39.2315 47.616 39.41L49.539 40.46L47.616 41.51C47.2826 41.6885 47.1714 42.0875 47.3604 42.392L48.3274 43.9775C48.5164 44.2925 48.9388 44.3975 49.2611 44.219L51.1841 43.169V45.269C51.1841 45.626 51.4954 45.92 51.8733 45.92H53.8185C54.1964 45.92 54.5077 45.626 54.5077 45.269V43.169L56.4307 44.219C56.7641 44.3975 57.1754 44.2925 57.3644 43.9775L58.3314 42.392C58.5093 42.0875 58.3981 41.6885 58.0758 41.51Z" fill="white"/>
</mask>
<g mask="url(#mask2_89_1307)">
<path d="M58.0758 41.51L56.1528 40.46L58.0758 39.41C58.4092 39.2315 58.5204 38.8325 58.3314 38.528L57.3644 36.9425C57.1754 36.6275 56.753 36.5225 56.4307 36.701L54.5077 37.751V35.651C54.5077 35.294 54.1964 35 53.8185 35H51.8733C51.4954 35 51.1841 35.294 51.1841 35.651V37.751L49.2611 36.701C48.9277 36.5225 48.5164 36.6275 48.3274 36.9425L47.3604 38.528C47.1714 38.843 47.2826 39.2315 47.616 39.41L49.539 40.46L47.616 41.51C47.2826 41.6885 47.1714 42.0875 47.3604 42.392L48.3274 43.9775C48.5164 44.2925 48.9388 44.3975 49.2611 44.219L51.1841 43.169V45.269C51.1841 45.626 51.4954 45.92 51.8733 45.92H53.8185C54.1964 45.92 54.5077 45.626 54.5077 45.269V43.169L56.4307 44.219C56.7641 44.3975 57.1754 44.2925 57.3644 43.9775L58.3314 42.392C58.5093 42.0875 58.3981 41.6885 58.0758 41.51Z" fill="white"/>
</g>
<mask id="mask3_89_1307" style="mask-type:alpha" maskUnits="userSpaceOnUse" x="63" y="35" width="12" height="11">
<path d="M74.2045 41.51L72.2815 40.46L74.2045 39.41C74.5379 39.2315 74.6491 38.8325 74.4601 38.528L73.4931 36.9425C73.3041 36.6275 72.8817 36.5225 72.5594 36.701L70.6364 37.751V35.651C70.6364 35.294 70.3251 35 69.9472 35H68.002C67.624 35 67.3128 35.294 67.3128 35.651V37.751L65.3898 36.701C65.0563 36.5225 64.6451 36.6275 64.4561 36.9425L63.489 38.528C63.3001 38.843 63.4112 39.2315 63.7447 39.41L65.6677 40.46L63.7447 41.51C63.4112 41.6885 63.3001 42.0875 63.489 42.392L64.4561 43.9775C64.6451 44.2925 65.0675 44.3975 65.3898 44.219L67.3128 43.169V45.269C67.3128 45.626 67.624 45.92 68.002 45.92H69.9472C70.3251 45.92 70.6364 45.626 70.6364 45.269V43.169L72.5594 44.219C72.8928 44.3975 73.3041 44.2925 73.4931 43.9775L74.4601 42.392C74.6491 42.0875 74.5379 41.6885 74.2045 41.51Z" fill="white"/>
</mask>
<g mask="url(#mask3_89_1307)">
<path d="M74.2045 41.51L72.2815 40.46L74.2045 39.41C74.5379 39.2315 74.6491 38.8325 74.4601 38.528L73.4931 36.9425C73.3041 36.6275 72.8817 36.5225 72.5594 36.701L70.6364 37.751V35.651C70.6364 35.294 70.3251 35 69.9472 35H68.002C67.624 35 67.3128 35.294 67.3128 35.651V37.751L65.3898 36.701C65.0563 36.5225 64.6451 36.6275 64.4561 36.9425L63.489 38.528C63.3001 38.843 63.4112 39.2315 63.7447 39.41L65.6677 40.46L63.7447 41.51C63.4112 41.6885 63.3001 42.0875 63.489 42.392L64.4561 43.9775C64.6451 44.2925 65.0675 44.3975 65.3898 44.219L67.3128 43.169V45.269C67.3128 45.626 67.624 45.92 68.002 45.92H69.9472C70.3251 45.92 70.6364 45.626 70.6364 45.269V43.169L72.5594 44.219C72.8928 44.3975 73.3041 44.2925 73.4931 43.9775L74.4601 42.392C74.6491 42.0875 74.5379 41.6885 74.2045 41.51Z" fill="white"/>
</g>
</g>
</g>
<defs>
<filter id="filter0_d_89_1307" x="0" y="0" width="100" height="81.6272" filterUnits="userSpaceOnUse" color-interpolation-filters="sRGB">
<feFlood flood-opacity="0" result="BackgroundImageFix"/>
<feColorMatrix in="SourceAlpha" type="matrix" values="0 0 0 0 0 0 0 0 0 0 0 0 0 0 0 0 0 0 127 0" result="hardAlpha"/>
<feOffset dy="4"/>
<feGaussianBlur stdDeviation="2"/>
<feComposite in2="hardAlpha" operator="out"/>
<feColorMatrix type="matrix" values="0 0 0 0 0.729412 0 0 0 0 0.752941 0 0 0 0 0.792157 0 0 0 1 0"/>
<feBlend mode="normal" in2="BackgroundImageFix" result="effect1_dropShadow_89_1307"/>
<feBlend mode="normal" in="SourceGraphic" in2="effect1_dropShadow_89_1307" result="shape"/>
</filter>
<filter id="filter1_d_89_1307" x="0" y="16" width="89" height="65.6272" filterUnits="userSpaceOnUse" color-interpolation-filters="sRGB">
<feFlood flood-opacity="0" result="BackgroundImageFix"/>
<feColorMatrix in="SourceAlpha" type="matrix" values="0 0 0 0 0 0 0 0 0 0 0 0 0 0 0 0 0 0 127 0" result="hardAlpha"/>
<feOffset dy="4"/>
<feGaussianBlur stdDeviation="2"/>
<feComposite in2="hardAlpha" operator="out"/>
<feColorMatrix type="matrix" values="0 0 0 0 0.4 0 0 0 0 0.439216 0 0 0 0 0.501961 0 0 0 0.22 0"/>
<feBlend mode="normal" in2="BackgroundImageFix" result="effect1_dropShadow_89_1307"/>
<feBlend mode="normal" in="SourceGraphic" in2="effect1_dropShadow_89_1307" result="shape"/>
</filter>
<filter id="filter2_d_89_1307" x="11" y="35" width="67.552" height="18.92" filterUnits="userSpaceOnUse" color-interpolation-filters="sRGB">
<feFlood flood-opacity="0" result="BackgroundImageFix"/>
<feColorMatrix in="SourceAlpha" type="matrix" values="0 0 0 0 0 0 0 0 0 0 0 0 0 0 0 0 0 0 127 0" result="hardAlpha"/>
<feOffset dy="4"/>
<feGaussianBlur stdDeviation="2"/>
<feComposite in2="hardAlpha" operator="out"/>
<feColorMatrix type="matrix" values="0 0 0 0 0 0 0 0 0 0 0 0 0 0 0 0 0 0 0.25 0"/>
<feBlend mode="normal" in2="BackgroundImageFix" result="effect1_dropShadow_89_1307"/>
<feBlend mode="normal" in="SourceGraphic" in2="effect1_dropShadow_89_1307" result="shape"/>
</filter>
</defs>
</svg>
